<?xml version="1.0" encoding="utf-8"?>
<!-- Generator: Adobe Illustrator 22.0.0, SVG Export Plug-In . SVG Version: 6.00 Build 0)  -->
<svg version="1.1" id="Слой_1" xmlns="http://www.w3.org/2000/svg" xmlns:xlink="http://www.w3.org/1999/xlink" x="0px" y="0px"
	 viewBox="0 0 56.8 56.8" style="enable-background:new 0 0 56.8 56.8;" xml:space="preserve">
<g>
	<path d="M56.8,28.4C56.8,44,44,56.8,28.4,56.8C12.7,56.8,0,44,0,28.4C0,12.7,12.7,0,28.4,0c5.7,0,11.3,1.8,16,4.9l4.4-4.4L52.2,14
		l-13.5-3.5l3.1-3.1c-4-2.6-8.7-4-13.4-4C14.7,3.5,3.5,14.7,3.5,28.4c0,13.7,11.2,24.9,24.9,24.9c13.7,0,24.9-11.2,24.9-24.9H56.8z
		 M21.3,28.6c-2.4,1.7-4,3.1-4.9,4.4c-0.9,1.2-1.3,2.7-1.3,4.4v0h12.8v-3.2h-8.2l0,0c0.6-0.9,1.8-1.8,3.5-2.9
		c1.8-1.2,3.1-2.2,3.7-3.1c0.7-0.9,1-2.1,1-3.5c0-1.7-0.6-3.1-1.7-4.2c-1.2-1.1-2.7-1.6-4.5-1.6c-2,0-3.5,0.6-4.7,1.8
		c-1.1,1.2-1.7,2.8-1.6,4.8H19c0-1.1,0.2-2,0.7-2.6c0.5-0.6,1.1-0.9,2-0.9c0.8,0,1.4,0.3,1.9,0.8c0.5,0.5,0.7,1.2,0.7,2
		c0,0.8-0.2,1.5-0.7,2.1C23.2,27.2,22.4,27.9,21.3,28.6L21.3,28.6z M36.4,37.4v-4.1H29v-3.2l6.9-11.4h4.1v11.7h2.1v2.9h-2.1v4.1
		L36.4,37.4z M36.4,30.4v-7.8l-4.5,7.6l-0.2,0.3H36.4z M29.5,6.4h-1.8v3.5h1.8V6.4z M29.5,46.2h-1.8v3.5h1.8V46.2z M50.3,28.9v-1.7
		h-3.5v1.7H50.3z M10.5,28.9v-1.7H7v1.7H10.5z M10.5,28.9"/>
</g>
</svg>
