<?xml version="1.0" encoding="utf-8"?>
<!-- Generator: Adobe Illustrator 22.0.0, SVG Export Plug-In . SVG Version: 6.00 Build 0)  -->
<svg version="1.1" id="Слой_1" xmlns="http://www.w3.org/2000/svg" xmlns:xlink="http://www.w3.org/1999/xlink" x="0px" y="0px"
	 viewBox="0 0 229 407" style="enable-background:new 0 0 229 407;" xml:space="preserve">
<path d="M0,0v332h229V0H0z M131.8,30.5H97.3c-3.3,0-6-2.7-6-6s2.7-6,6-6h34.5c3.3,0,6,2.7,6,6S135.1,30.5,131.8,30.5z"/>
<path d="M0,342v65h229v-65H0z M114.5,394c-11.2,0-20.3-9.1-20.3-20.3s9.1-20.3,20.3-20.3c11.2,0,20.3,9.1,20.3,20.3
	S125.7,394,114.5,394z"/>
</svg>
