<?xml version="1.0" encoding="utf-8"?>
<!-- Generator: Adobe Illustrator 22.0.0, SVG Export Plug-In . SVG Version: 6.00 Build 0)  -->
<svg version="1.1" id="Слой_1" xmlns="http://www.w3.org/2000/svg" xmlns:xlink="http://www.w3.org/1999/xlink" x="0px" y="0px"
	 viewBox="0 0 286.9 246.7" style="enable-background:new 0 0 286.9 246.7;" xml:space="preserve">
<path d="M0,0v246.7l94.1-76.5h192.8c0,0,0-7.6,0-19.1V0H0z M65,106.9c-14.4,0-26-11.6-26-26s11.6-26,26-26s26,11.6,26,26
	S79.4,106.9,65,106.9z M142.5,106.9c-14.4,0-26-11.6-26-26s11.6-26,26-26s26,11.6,26,26S156.9,106.9,142.5,106.9z M220,106.9
	c-14.4,0-26-11.6-26-26s11.6-26,26-26s26,11.6,26,26S234.4,106.9,220,106.9z"/>
</svg>
