<?xml version="1.0" encoding="utf-8"?>
<!-- Generator: Adobe Illustrator 22.0.0, SVG Export Plug-In . SVG Version: 6.00 Build 0)  -->
<svg version="1.1" id="Слой_1" xmlns="http://www.w3.org/2000/svg" xmlns:xlink="http://www.w3.org/1999/xlink" x="0px" y="0px"
	 viewBox="0 0 225 225" style="enable-background:new 0 0 225 225;" xml:space="preserve">
<g>
	<path d="M112.5,0C50.4,0,0,50.4,0,112.5S50.4,225,112.5,225S225,174.6,225,112.5S174.6,0,112.5,0L112.5,0z M161.1,133.9h-47.7
		c-0.2,0-0.3,0-0.5,0c-0.2,0-0.3,0-0.5,0c-4.3,0-7.8-3.5-7.8-7.8V46.7c0-4.3,3.5-7.8,7.8-7.8c4.3,0,7.8,3.5,7.8,7.8v71.6h40.9
		c4.3,0,7.8,3.5,7.8,7.8C168.9,130.4,165.4,133.9,161.1,133.9L161.1,133.9z M161.1,133.9"/>
</g>
</svg>
