<?xml version="1.0" encoding="utf-8"?>
<!-- Generator: Adobe Illustrator 22.0.0, SVG Export Plug-In . SVG Version: 6.00 Build 0)  -->
<svg version="1.1" id="Слой_1" xmlns="http://www.w3.org/2000/svg" xmlns:xlink="http://www.w3.org/1999/xlink" x="0px" y="0px"
	 viewBox="0 0 307 305" style="enable-background:new 0 0 307 305;" xml:space="preserve">
<style type="text/css">
	.st0{clip-path:url(#SVGID_2_);}
</style>
<g>
	<g>
		<defs>
			<rect id="SVGID_1_" x="0" width="307" height="305"/>
		</defs>
		<clipPath id="SVGID_2_">
			<use xlink:href="#SVGID_1_"  style="overflow:visible;"/>
		</clipPath>
		<path class="st0" d="M153.4,161.5c38,0,68.8-36.1,68.8-80.5c0-61.7-30.8-80.5-68.8-80.5S84.6,19.3,84.6,81
			C84.6,125.4,115.4,161.5,153.4,161.5L153.4,161.5z M153.4,161.5"/>
		<path class="st0" d="M305.4,280l-34.7-78.2c-1.6-3.6-4.4-6.5-7.8-8.4l-53.9-28c-1.2-0.6-2.6-0.5-3.7,0.3
			c-15.2,11.5-33.2,17.6-51.8,17.6c-18.7,0-36.6-6.1-51.8-17.6c-1.1-0.8-2.5-0.9-3.7-0.3l-53.9,28c-3.5,1.8-6.3,4.8-7.8,8.4L1.5,280
			c-2.4,5.4-1.9,11.6,1.3,16.5c3.2,4.9,8.7,7.9,14.6,7.9h272.1c5.9,0,11.3-3,14.6-7.9C307.3,291.6,307.8,285.4,305.4,280L305.4,280z
			 M305.4,280"/>
	</g>
</g>
</svg>
