<?xml version="1.0" encoding="utf-8"?>
<!-- Generator: Adobe Illustrator 22.0.0, SVG Export Plug-In . SVG Version: 6.00 Build 0)  -->
<svg version="1.1" id="Слой_1" xmlns="http://www.w3.org/2000/svg" xmlns:xlink="http://www.w3.org/1999/xlink" x="0px" y="0px"
	 viewBox="0 0 496 496" style="enable-background:new 0 0 496 496;" xml:space="preserve">
<g id="group">
	<path id="conture_14_" d="M320,480v-57.2c0-3.4,0.7-6.7,2.1-9.7l26.5-59.6c2.3-5.1,3.4-10.6,3.4-16.3V320h104V40h-56V0h-88
		c-27.8,0-52,15.9-64,39c-12-23.2-36.2-39-64-39H96v40H40v280h104v15.7c0,6.8,1.7,13.5,5,19.4l32,57.5c2,3.5,3,7.6,3,11.6V480H0v16
		h496v-16H320z M440,56v248H272v8c0,13.2-10.8,24-24,24c-1,0-2-0.2-3-0.4c-4.2-17.8-13-34.1-25.9-47.6H400V56H440z M112,16h72
		c30.9,0,56,25.1,56,56v64h16V72c0-30.9,25.1-56,56-56h72v256H256V152h-16v120h-32v-40c0-26.5-21.5-48-48-48c-8.8,0-16,7.2-16,16v72
		h-32V16z M56,304V56h40v232h48v16H56z M163,347.4c-2-3.6-3-7.6-3-11.7V200c17.6,0,32,14.4,32,32v51.3l14.1,14.1
		c16.7,16.7,25.9,39,25.9,62.6h16c0-2.7-0.2-5.4-0.4-8c0.1,0,0.3,0,0.4,0c19.3,0,35.5-13.8,39.2-32H336v17.2c0,3.4-0.7,6.7-2.1,9.7
		l-26.5,59.6c-1.4,3-2.2,6.2-2.7,9.5H199.1c-0.8-3.9-2.2-7.6-4.1-11.1L163,347.4z M200,464h72v-16h-72v-16h104v16h-16v16h16v16H200
		V464z M200,464"/>
	<rect id="conture_13_" x="312" y="208" width="16" height="16"/>
	<rect id="conture_12_" x="344" y="208" width="16" height="16"/>
	<rect id="conture_11_" x="280" y="208" width="16" height="16"/>
	<rect id="conture_10_" x="272" y="240" width="96" height="16"/>
	<rect id="conture_9_" x="272" y="176" width="96" height="16"/>
	<rect id="conture_8_" x="272" y="120" width="96" height="16"/>
	<rect id="conture_7_" x="272" y="88" width="96" height="16"/>
	<rect id="conture_6_" x="272" y="56" width="96" height="16"/>
	<rect id="conture_5_" x="168" y="88" width="16" height="16"/>
	<rect id="conture_4_" x="200" y="88" width="16" height="16"/>
	<rect id="conture_3_" x="136" y="88" width="16" height="16"/>
	<rect id="conture_2_" x="128" y="56" width="96" height="16"/>
	<rect id="conture_1_" x="128" y="120" width="96" height="16"/>
	<rect id="conture" x="128" y="152" width="96" height="16"/>
</g>
</svg>
