<svg width="199" height="66" viewBox="0 0 199 66" fill="none" xmlns="http://www.w3.org/2000/svg">
<path d="M20.872 1.64799C21.0427 1.34932 21.2987 1.19999 21.64 1.19999H26.504C26.9307 1.19999 27.144 1.41332 27.144 1.83998V45.36C27.144 45.7867 26.9307 46 26.504 46H21.64C21.2133 46 21 45.7867 21 45.36V13.616C21 13.488 20.9573 13.424 20.872 13.424C20.8293 13.424 20.7653 13.4667 20.68 13.552L14.536 25.008C14.408 25.3067 14.216 25.456 13.96 25.456C13.704 25.456 13.512 25.3067 13.384 25.008L7.304 13.616C7.21866 13.5307 7.13333 13.488 7.048 13.488C7.00533 13.488 6.984 13.552 6.984 13.68V45.36C6.984 45.7867 6.77066 46 6.344 46H1.48C1.05333 46 0.839996 45.7867 0.839996 45.36V1.83998C0.839996 1.41332 1.05333 1.19999 1.48 1.19999H6.344C6.64266 1.19999 6.89866 1.34932 7.112 1.64799L13.832 13.68C13.8747 13.7227 13.9387 13.744 14.024 13.744C14.1093 13.744 14.1733 13.7227 14.216 13.68L20.872 1.64799Z" fill="#000000"/>
<path d="M52.4415 46C52.0575 46 51.8228 45.808 51.7375 45.424L50.3295 38.064C50.3295 37.9787 50.2868 37.9147 50.2015 37.872C50.1588 37.8293 50.0948 37.808 50.0095 37.808H39.5775C39.4922 37.808 39.4068 37.8293 39.3215 37.872C39.2788 37.9147 39.2575 37.9787 39.2575 38.064L37.9135 45.424C37.8708 45.808 37.6362 46 37.2095 46H32.3455C32.1322 46 31.9615 45.936 31.8335 45.808C31.7482 45.68 31.7268 45.5093 31.7695 45.296L41.3055 1.77599C41.3908 1.39199 41.6255 1.19999 42.0095 1.19999H47.7055C48.1322 1.19999 48.3668 1.39199 48.4095 1.77599L58.0095 45.296V45.424C58.0095 45.808 57.8175 46 57.4335 46H52.4415ZM40.3455 32.688C40.3455 32.8587 40.4095 32.944 40.5375 32.944H49.0495C49.1775 32.944 49.2415 32.8587 49.2415 32.688L44.8895 9.96799C44.8468 9.88265 44.8042 9.83999 44.7615 9.83999C44.7188 9.83999 44.6762 9.88265 44.6335 9.96799L40.3455 32.688Z" fill="#000000"/>
<path d="M72.592 46.512C69.136 46.512 66.3413 45.488 64.208 43.44C62.1173 41.392 61.072 38.6827 61.072 35.312V11.888C61.072 8.51732 62.1173 5.80799 64.208 3.75999C66.3413 1.71199 69.136 0.687988 72.592 0.687988C76.048 0.687988 78.8427 1.71199 80.976 3.75999C83.1093 5.80799 84.176 8.53865 84.176 11.952V14.64C84.176 15.0667 83.9627 15.28 83.536 15.28H78.672C78.2453 15.28 78.032 15.0667 78.032 14.64V11.824C78.032 10.0747 77.52 8.66665 76.496 7.59999C75.5147 6.53332 74.2133 5.99999 72.592 5.99999C70.9707 5.99999 69.648 6.53332 68.624 7.59999C67.6427 8.66665 67.152 10.0747 67.152 11.824V35.376C67.152 37.1253 67.6427 38.5333 68.624 39.6C69.648 40.6667 70.9707 41.2 72.592 41.2C74.2133 41.2 75.5147 40.6667 76.496 39.6C77.52 38.5333 78.032 37.1253 78.032 35.376V28.336C78.032 28.1653 77.9467 28.08 77.776 28.08H72.912C72.4853 28.08 72.272 27.8667 72.272 27.44V23.472C72.272 23.0453 72.4853 22.832 72.912 22.832H83.536C83.9627 22.832 84.176 23.0453 84.176 23.472V35.312C84.176 38.6827 83.1093 41.392 80.976 43.44C78.8427 45.488 76.048 46.512 72.592 46.512Z" fill="#000000"/>
<path d="M105.696 65.512C102.325 65.512 99.5947 64.4667 97.504 62.376C95.456 60.2427 94.432 57.4693 94.432 54.056V52.392C94.432 51.9653 94.6453 51.752 95.072 51.752H99.808C100.235 51.752 100.448 51.9653 100.448 52.392V53.736C100.448 55.6987 100.939 57.2773 101.92 58.472C102.901 59.624 104.16 60.2 105.696 60.2C107.232 60.2 108.491 59.6453 109.472 58.536C110.496 57.384 111.008 55.8907 111.008 54.056C111.008 52.8187 110.731 51.7307 110.176 50.792C109.664 49.8533 108.96 49.0213 108.064 48.296C107.211 47.528 105.803 46.4187 103.84 44.968C101.664 43.3467 99.9573 41.96 98.72 40.808C97.4827 39.656 96.4373 38.2693 95.584 36.648C94.7307 35.0267 94.304 33.128 94.304 30.952C94.304 27.496 95.328 24.7653 97.376 22.76C99.424 20.712 102.091 19.688 105.376 19.688C108.789 19.688 111.52 20.776 113.568 22.952C115.659 25.128 116.704 27.9867 116.704 31.528V33.128C116.704 33.5547 116.491 33.768 116.064 33.768H111.328C110.901 33.768 110.688 33.5547 110.688 33.128V31.4C110.688 29.48 110.197 27.944 109.216 26.792C108.235 25.5973 106.955 25 105.376 25C103.883 25 102.667 25.5333 101.728 26.6C100.789 27.624 100.32 29.0747 100.32 30.952C100.32 32.6587 100.789 34.1093 101.728 35.304C102.667 36.456 104.48 38.0133 107.168 39.976C109.728 41.896 111.648 43.4533 112.928 44.648C114.251 45.8427 115.253 47.1653 115.936 48.616C116.661 50.024 117.024 51.7093 117.024 53.672C117.024 57.256 115.979 60.136 113.888 62.312C111.797 64.4453 109.067 65.512 105.696 65.512Z" fill="#41A7C0"/>
<path d="M140.754 65C140.37 65 140.135 64.808 140.05 64.424L138.642 57.064C138.642 56.9787 138.599 56.9147 138.514 56.872C138.471 56.8293 138.407 56.808 138.322 56.808H127.89C127.805 56.808 127.719 56.8293 127.634 56.872C127.591 56.9147 127.57 56.9787 127.57 57.064L126.226 64.424C126.183 64.808 125.949 65 125.522 65H120.658C120.445 65 120.274 64.936 120.146 64.808C120.061 64.68 120.039 64.5093 120.082 64.296L129.618 20.776C129.703 20.392 129.938 20.2 130.322 20.2H136.018C136.445 20.2 136.679 20.392 136.722 20.776L146.322 64.296V64.424C146.322 64.808 146.13 65 145.746 65H140.754ZM128.658 51.688C128.658 51.8587 128.722 51.944 128.85 51.944H137.362C137.49 51.944 137.554 51.8587 137.554 51.688L133.202 28.968C133.159 28.8827 133.117 28.84 133.074 28.84C133.031 28.84 132.989 28.8827 132.946 28.968L128.658 51.688Z" fill="#41A7C0"/>
<path d="M172.469 24.872C172.469 25.2987 172.256 25.512 171.829 25.512H157.493C157.322 25.512 157.237 25.5973 157.237 25.768V39.656C157.237 39.8267 157.322 39.912 157.493 39.912H166.261C166.688 39.912 166.901 40.1253 166.901 40.552V44.584C166.901 45.0107 166.688 45.224 166.261 45.224H157.493C157.322 45.224 157.237 45.3093 157.237 45.48V64.36C157.237 64.7867 157.024 65 156.597 65H151.733C151.306 65 151.093 64.7867 151.093 64.36V20.84C151.093 20.4133 151.306 20.2 151.733 20.2H171.829C172.256 20.2 172.469 20.4133 172.469 20.84V24.872Z" fill="#41A7C0"/>
<path d="M198.783 24.872C198.783 25.2987 198.57 25.512 198.143 25.512H183.743C183.572 25.512 183.487 25.5973 183.487 25.768V39.656C183.487 39.8267 183.572 39.912 183.743 39.912H192.575C193.002 39.912 193.215 40.1253 193.215 40.552V44.584C193.215 45.0107 193.002 45.224 192.575 45.224H183.743C183.572 45.224 183.487 45.3093 183.487 45.48V59.432C183.487 59.6027 183.572 59.688 183.743 59.688H198.143C198.57 59.688 198.783 59.9013 198.783 60.328V64.36C198.783 64.7867 198.57 65 198.143 65H177.983C177.556 65 177.343 64.7867 177.343 64.36V20.84C177.343 20.4133 177.556 20.2 177.983 20.2H198.143C198.57 20.2 198.783 20.4133 198.783 20.84V24.872Z" fill="#41A7C0"/>
</svg>
