<?xml version="1.0" encoding="utf-8"?>
<!-- Generator: Adobe Illustrator 22.0.0, SVG Export Plug-In . SVG Version: 6.00 Build 0)  -->
<svg version="1.1" id="Слой_1" xmlns="http://www.w3.org/2000/svg" xmlns:xlink="http://www.w3.org/1999/xlink" x="0px" y="0px"
	 viewBox="0 0 941.2 763.2" style="enable-background:new 0 0 941.2 763.2;" xml:space="preserve">
<style type="text/css">
	.st0{fill:url(#SVGID_1_);}
	.st1{fill:url(#SVGID_2_);}
	.st2{fill:url(#SVGID_3_);}
	.st3{fill:url(#SVGID_4_);}
	.st4{fill:url(#SVGID_5_);}
	.st5{fill:url(#SVGID_6_);}
	.st6{fill:url(#SVGID_7_);}
	.st7{fill:url(#SVGID_8_);}
	.st8{fill:#FFFFFF;}
	.st9{fill:#5FCD59;}
	.st10{fill:#44B747;}
	.st11{fill:#9DEA59;}
	.st12{fill:url(#SVGID_9_);}
	.st13{fill:#E6F3DE;}
</style>
<g transform="translate(289.274 -3048.234)">
	<linearGradient id="SVGID_1_" gradientUnits="userSpaceOnUse" x1="620.8358" y1="3421.7708" x2="-267.6271" y2="3421.7708">
		<stop  offset="0" style="stop-color:#B5D653"/>
		<stop  offset="0.995" style="stop-color:#019961"/>
	</linearGradient>
	<path class="st0" d="M382.7,3152.5h-671.9V3691h671.9c148.7,0,269.2-120.5,269.2-269.2S531.4,3152.5,382.7,3152.5z"/>
	<g transform="translate(1180.958 2922.589)">
		<rect x="-1299" y="852.5" width="652.4" height="11.6"/>
		<path d="M-646.6,447.9v404.6H-1299V447.9c0.1-9.4,7.7-17,17.1-17h618.1C-654.3,430.9-646.7,438.5-646.6,447.9z"/>
		<path d="M-643.7,864.1v1.1h-2.9l0,0H-1299l0,0h-2.9v-1.1H-643.7z"/>
		
			<linearGradient id="SVGID_2_" gradientUnits="userSpaceOnUse" x1="-1364.4092" y1="627.7277" x2="-1363.4092" y2="627.7277" gradientTransform="matrix(406.026 0 0 -12.29 552603.4375 8586.6494)">
			<stop  offset="0" style="stop-color:#929292"/>
			<stop  offset="1.400000e-02" style="stop-color:#C1C1C1"/>
			<stop  offset="2.700000e-02" style="stop-color:#B1B1B1"/>
			<stop  offset="4.900000e-02" style="stop-color:#9C9C9C"/>
			<stop  offset="7.100000e-02" style="stop-color:#A3A3A3"/>
			<stop  offset="9.099999e-02" style="stop-color:#AFAFAF"/>
			<stop  offset="1" style="stop-color:#CFCFCF"/>
		</linearGradient>
		<rect x="-1382.1" y="865.7" class="st1" width="406" height="12.3"/>
		
			<linearGradient id="SVGID_3_" gradientUnits="userSpaceOnUse" x1="-1363.8734" y1="1067.9148" x2="-1362.8734" y2="1067.9148" gradientTransform="matrix(812.051 0 0 -0.613 1106152.75 1520.0569)">
			<stop  offset="5.000000e-03" style="stop-color:#F8F8F8"/>
			<stop  offset="6.400000e-02" style="stop-color:#D0D0D0"/>
			<stop  offset="0.503" style="stop-color:#F8F8F8"/>
			<stop  offset="0.866" style="stop-color:#D0D0D0"/>
			<stop  offset="0.876" style="stop-color:#D3D3D3"/>
			<stop  offset="0.951" style="stop-color:#E8E8E8"/>
			<stop  offset="1" style="stop-color:#F1F1F1"/>
		</linearGradient>
		<rect x="-1382.1" y="865.1" class="st2" width="812.1" height="0.6"/>
		
			<linearGradient id="SVGID_4_" gradientUnits="userSpaceOnUse" x1="-1364.4092" y1="627.7277" x2="-1363.4092" y2="627.7277" gradientTransform="matrix(406.026 0 0 -12.29 553009.5 8586.6494)">
			<stop  offset="0" style="stop-color:#CFCFCF"/>
			<stop  offset="0.909" style="stop-color:#AFAFAF"/>
			<stop  offset="0.929" style="stop-color:#A3A3A3"/>
			<stop  offset="0.951" style="stop-color:#9C9C9C"/>
			<stop  offset="0.973" style="stop-color:#B1B1B1"/>
			<stop  offset="0.986" style="stop-color:#C1C1C1"/>
			<stop  offset="1" style="stop-color:#929292"/>
		</linearGradient>
		<rect x="-976.1" y="865.7" class="st3" width="406" height="12.3"/>
		
			<linearGradient id="SVGID_5_" gradientUnits="userSpaceOnUse" x1="-1364.4092" y1="629.1785" x2="-1363.4092" y2="629.1785" gradientTransform="matrix(406.026 0 0 -11.564 552603.4375 8147.333)">
			<stop  offset="0" style="stop-color:#666666"/>
			<stop  offset="1.400000e-02" style="stop-color:#D5D5D5"/>
			<stop  offset="2.100000e-02" style="stop-color:#BDBDBD"/>
			<stop  offset="4.000000e-02" style="stop-color:#858585"/>
			<stop  offset="4.900000e-02" style="stop-color:#707070"/>
			<stop  offset="5.700000e-02" style="stop-color:#787878"/>
			<stop  offset="7.000000e-02" style="stop-color:#8D8D8D"/>
			<stop  offset="8.700000e-02" style="stop-color:#B1B1B1"/>
			<stop  offset="9.099999e-02" style="stop-color:#BCBCBC"/>
			<stop  offset="1" style="stop-color:#F1F1F1"/>
		</linearGradient>
		<rect x="-1382.1" y="865.7" class="st4" width="406" height="11.6"/>
		
			<linearGradient id="SVGID_6_" gradientUnits="userSpaceOnUse" x1="-1364.4092" y1="629.1785" x2="-1363.4092" y2="629.1785" gradientTransform="matrix(406.026 0 0 -11.564 553009.5 8147.333)">
			<stop  offset="0" style="stop-color:#F1F1F1"/>
			<stop  offset="0.909" style="stop-color:#BCBCBC"/>
			<stop  offset="0.913" style="stop-color:#B1B1B1"/>
			<stop  offset="0.93" style="stop-color:#8D8D8D"/>
			<stop  offset="0.943" style="stop-color:#787878"/>
			<stop  offset="0.951" style="stop-color:#707070"/>
			<stop  offset="0.96" style="stop-color:#858585"/>
			<stop  offset="0.979" style="stop-color:#BDBDBD"/>
			<stop  offset="0.986" style="stop-color:#D5D5D5"/>
			<stop  offset="1" style="stop-color:#666666"/>
		</linearGradient>
		<rect x="-976.1" y="865.7" class="st5" width="406" height="11.6"/>
		
			<linearGradient id="SVGID_7_" gradientUnits="userSpaceOnUse" x1="-1367.1014" y1="634.8" x2="-1366.1014" y2="634.8" gradientTransform="matrix(115.579 0 0 -9.41 156974.3906 6843.3164)">
			<stop  offset="0" style="stop-color:#9F9F9F"/>
			<stop  offset="4.000000e-02" style="stop-color:#ACACAC"/>
			<stop  offset="0.514" style="stop-color:#E5E5E5"/>
			<stop  offset="0.963" style="stop-color:#ACACAC"/>
			<stop  offset="1" style="stop-color:#9F9F9F"/>
		</linearGradient>
		<path class="st6" d="M-918.3,865.1c0,2.5-1,4.9-2.8,6.7c-1.8,1.8-4.2,2.8-6.7,2.8h-96.8c-5.2,0-9.4-4.2-9.4-9.4L-918.3,865.1z"/>
		
			<image style="overflow:visible;enable-background:new    ;" width="118" height="11" xlink:href="38B7AB92.png"  transform="matrix(1 0 0 1 -1035.1058 864.4747)">
		</image>
		
			<linearGradient id="SVGID_8_" gradientUnits="userSpaceOnUse" x1="-1363.3734" y1="630.3427" x2="-1363.3734" y2="631.3427" gradientTransform="matrix(812.051 0 0 -10.8301 1106152.75 7715.5117)">
			<stop  offset="0" style="stop-color:#575757"/>
			<stop  offset="0.739" style="stop-color:#B9B9B9"/>
			<stop  offset="0.847" style="stop-color:#B5B5B5"/>
			<stop  offset="0.936" style="stop-color:#ABABAB"/>
			<stop  offset="1" style="stop-color:#9F9F9F"/>
		</linearGradient>
		<path class="st7" d="M-1382.1,878c28.8,7.2,58.5,10.9,88.2,10.8h635.7c29.7,0,59.4-3.6,88.2-10.8H-1382.1z"/>
		<rect x="-1285.5" y="455.5" class="st8" width="625.4" height="386.9"/>
	</g>
	<g transform="matrix(-0.951, -0.309, 0.309, -0.951, 1025.75, 8258.248)">
		<g transform="translate(1870 4545.001)">
			<path class="st9" d="M571.8-47.6c-23,17.9-54.9,15.5-54.9,15.5s5.4-31.5,28.4-49.4S600.3-97,600.3-97S594.8-65.5,571.8-47.6z"/>
			<path class="st9" d="M213.9,37.5c-3.1,29-27,50.2-27,50.2S168,61.9,171.1,32.9c3.1-29,27-50.2,27-50.2S217,8.5,213.9,37.5z"/>
			<path class="st10" d="M742.9,55.2c0,18.6-13.7,33.7-13.7,33.7s-13.7-15.1-13.8-33.7s13.7-33.7,13.7-33.7S742.9,36.6,742.9,55.2z"
				/>
			<path class="st10" d="M-25.6-210.1c-17.9-5.1-28.7-22.4-28.7-22.4s18.3-9.1,36.2-4c17.9,5.1,28.7,22.4,28.7,22.4
				S-7.7-205-25.6-210.1z"/>
			<path class="st11" d="M414,8.7c-22.3-3.8-37.6-23.3-37.6-23.3s20.9-13.4,43.1-9.6S457.2-1,457.2-1S436.3,12.4,414,8.7z"/>
			<path class="st11" d="M795-377.2c-20.6,9.3-44.2,1.7-44.2,1.7s9.8-22.8,30.4-32.1c20.6-9.3,44.2-1.7,44.2-1.7
				S815.6-386.5,795-377.2z"/>
			<path class="st11" d="M700.8-535.9c15-16.9,39.6-19.6,39.6-19.6s0.3,24.8-14.7,41.7c-15,16.9-39.6,19.6-39.6,19.6
				S685.8-519,700.8-535.9z"/>
			<path class="st11" d="M837.3-216.1c-22.3-3.8-37.6-23.3-37.6-23.3s20.9-13.4,43.1-9.6s37.6,23.3,37.6,23.3
				S859.6-212.4,837.3-216.1z"/>
			<path class="st11" d="M450.9,125.5c-5.8,13-20.1,19.3-20.1,19.3s-4.9-14.8,0.9-27.8s20.1-19.3,20.1-19.3S456.8,112.5,450.9,125.5
				z"/>
			<path class="st11" d="M767-129.3c9.9,10.3,10.3,25.9,10.3,25.9s-15.6-1-25.4-11.3s-10.3-25.9-10.3-25.9S757.1-139.5,767-129.3z"
				/>
			<path class="st9" d="M165.6,201.2c-13,5.8-27.8,1-27.8,1S144,187.9,157,182s27.8-1,27.8-1S178.6,195.4,165.6,201.2z"/>
		</g>
	</g>
	
		<linearGradient id="SVGID_9_" gradientUnits="userSpaceOnUse" x1="-182.7432" y1="3532.1362" x2="-182.0082" y2="3530.9504" gradientTransform="matrix(626 0 0 -61 114499.625 218850.7031)">
		<stop  offset="0" style="stop-color:#8DC957"/>
		<stop  offset="1" style="stop-color:#31A95D"/>
	</linearGradient>
	<rect x="-105.1" y="3376.5" class="st12" width="626" height="61"/>
	<path class="st8" d="M-35.1,3394.5h303c7.2,0,13,5.8,13,13l0,0c0,7.2-5.8,13-13,13h-303c-7.2,0-13-5.8-13-13l0,0
		C-48.1,3400.3-42.3,3394.5-35.1,3394.5z"/>
	<path class="st8" d="M315.9,3394.5h43c7.2,0,13,5.8,13,13l0,0c0,7.2-5.8,13-13,13h-43c-7.2,0-13-5.8-13-13l0,0
		C302.9,3400.3,308.7,3394.5,315.9,3394.5z"/>
	<rect x="-48.1" y="3495.5" class="st13" width="239" height="172"/>
	<rect x="231.9" y="3496.5" class="st13" width="239" height="23"/>
	<rect x="231.9" y="3541.5" class="st13" width="157" height="23"/>
	<rect x="231.9" y="3586.5" class="st13" width="239" height="23"/>
	<rect x="231.9" y="3631.5" class="st13" width="140" height="23"/>
</g>
</svg>
