<?xml version="1.0" encoding="utf-8"?>
<!-- Generator: Adobe Illustrator 22.0.0, SVG Export Plug-In . SVG Version: 6.00 Build 0)  -->
<svg version="1.1" id="Слой_1" xmlns="http://www.w3.org/2000/svg" xmlns:xlink="http://www.w3.org/1999/xlink" x="0px" y="0px"
	 viewBox="0 0 961 1214.2" style="enable-background:new 0 0 961 1214.2;" xml:space="preserve">
<style type="text/css">
	.st0{fill:url(#SVGID_1_);}
	.st1{fill:url(#SVGID_2_);}
	.st2{fill:#019961;}
	.st3{fill:url(#SVGID_3_);}
	.st4{fill:url(#SVGID_4_);}
	.st5{fill:url(#SVGID_5_);}
	.st6{fill:url(#SVGID_6_);}
	.st7{fill:#FFF0B3;}
	.st8{fill:url(#SVGID_7_);}
	.st9{fill:#893136;}
	.st10{fill:url(#SVGID_8_);}
	.st11{fill:url(#SVGID_9_);}
	.st12{fill:#C0755E;}
	.st13{fill:#511F24;}
	.st14{fill:url(#SVGID_10_);}
	.st15{fill:url(#SVGID_11_);}
	.st16{fill:url(#SVGID_12_);}
	.st17{fill:url(#SVGID_13_);}
	.st18{fill:url(#SVGID_14_);}
	.st19{fill:url(#SVGID_15_);}
	.st20{fill:url(#SVGID_16_);}
	.st21{fill:url(#SVGID_17_);}
	.st22{fill:url(#SVGID_18_);}
	.st23{fill:url(#SVGID_19_);}
	.st24{fill:url(#SVGID_20_);}
</style>
<g transform="translate(180 -1863.724)">
	<g transform="translate(-180 1863.724)">
		<g transform="translate(0 0)">
			<g transform="translate(0 191.081)">
				
					<linearGradient id="SVGID_1_" gradientUnits="userSpaceOnUse" x1="274.926" y1="518.5619" x2="273.926" y2="518.5619" gradientTransform="matrix(433.5131 0 0 -161.3391 -118731.2344 83977.1563)">
					<stop  offset="0" style="stop-color:#D8EFD1"/>
					<stop  offset="0.483" style="stop-color:#E5F3DD"/>
					<stop  offset="1" style="stop-color:#EFF7E7"/>
				</linearGradient>
				<path class="st0" d="M77,344.4c9.8,0,19.5,2.5,28.1,7.2c17.6-26.6,50-39.4,81-32c7-54.9,57.2-93.7,112.1-86.6
					c50,6.4,87.4,48.9,87.4,99.3c0,0.1,0,0.2,0,0.3c2-0.2,4-0.3,6.1-0.3c33.8,0,61.2,27.4,61.2,61.2l0,0H19.3
					C23.9,365.2,48.3,344.4,77,344.4z"/>
				
					<linearGradient id="SVGID_2_" gradientUnits="userSpaceOnUse" x1="274.922" y1="520.6354" x2="273.922" y2="520.6354" gradientTransform="matrix(253.2549 0 0 -98.3525 -69372.0781 51248.9727)">
					<stop  offset="0" style="stop-color:#D8EFD1"/>
					<stop  offset="0.483" style="stop-color:#E5F3DD"/>
					<stop  offset="1" style="stop-color:#EFF7E7"/>
				</linearGradient>
				<path class="st1" d="M2.3,92.3c-6-13.5,0-29.3,13.5-35.4c7.8-3.5,16.8-3,24.2,1.2C43.3,37.8,62.5,23.8,83,27
					c1.6,0.2,3.1,0.6,4.6,1C96,2.2,123.7-12,149.5-3.6c16.3,5.3,28.7,18.7,32.6,35.3c7.6-1.8,15.3,2.9,17.1,10.5
					c0.5,2.3,0.5,4.7-0.1,6.9c10.4,1.2,19.6,7.4,24.7,16.5c0.8-0.1,1.7-0.1,2.6-0.1c14.8,0,26.8,12,26.8,26.8l0,0L2.3,92.3z"/>
			</g>
			<g transform="translate(360.276)">
				<path class="st2" d="M600.7,911.7l-109.4,9c0,0-650.1-226.5-741.3-4.6c-50.7,123.4,147,328.6,370.1,211s309-42.1,430.1,44.4
					c16.6,11.9,33.6,19.8,50.5,24.4V911.7z"/>
				<linearGradient id="SVGID_3_" gradientUnits="userSpaceOnUse" x1="157.4215" y1="777.5694" x2="215.5242" y2="1144.3092">
					<stop  offset="0" style="stop-color:#B5D653"/>
					<stop  offset="0.995" style="stop-color:#019961"/>
				</linearGradient>
				<path class="st3" d="M600.7,837.3l-109.4,9c0,0-650.1-226.5-741.3-4.6c-50.7,123.4,147,328.6,370.1,211s309-42.1,430.1,44.4
					c16.6,11.9,33.6,19.8,50.5,24.4V837.3z"/>
				<g transform="translate(0)">
					<path class="st2" d="M403.4,335.7c-22.5-46.8-70.3-72-114.6-94.1c-3.4-1.8-7.4-1.9-10.9-0.2c-78.9-31.3-180-62.5-250.9,2.9
						c-29.5,27.2-47.7,72.2-44.7,112.3c1.4,19.6,9,37.3,24.4,49.9c14.8,12.2,34.2,17.8,48.3,30.8c16,14.8,21.5,37.4,29.3,56.9
						c7.5,18.6,17.4,35.7,31.1,50.5c26.3,28.4,64.4,44.8,103.1,37.3c37.9-7.3,64.4-34.3,73.3-71.2c2.4-9.8,3.9-20.7,10.1-29
						c6.3-8.3,16.2-11.1,25.9-13.3c18.8-4.2,37.7-5.9,53.7-17.8C417.6,424.1,421.8,374,403.4,335.7z"/>
					
						<linearGradient id="SVGID_4_" gradientUnits="userSpaceOnUse" x1="-85.7574" y1="706.9332" x2="-85.8684" y2="707.5073" gradientTransform="matrix(470.1812 0 0 -411.7227 40368.5469 291736.0938)">
						<stop  offset="0" style="stop-color:#B5D653"/>
						<stop  offset="0.995" style="stop-color:#019961"/>
					</linearGradient>
					<path class="st4" d="M206.2,342.4c-1.9-40.5-13.6-80.2-37.6-114.8c-22.6-32.5-53.7-58.8-90.6-73.8
						c-44.5-18.1-93.1-15-138.8-2.8c-81.6,21.9-192.2,66.4-202.6,163.5c-4.6,43.3,15.9,78.8,51.2,102.3
						c17.6,11.7,37.8,21.4,50.1,39.4c12.6,18.4,17.9,40.6,32.3,58c32.5,39.2,87.9,44.3,134.5,33.5c52.6-12.2,103.1-38.6,146.9-69.9
						C196.8,432.7,204.8,363.3,206.2,342.4z"/>
					
						<linearGradient id="SVGID_5_" gradientUnits="userSpaceOnUse" x1="-86.335" y1="707.129" x2="-86.335" y2="708.16" gradientTransform="matrix(345.2827 0 0 -336.2925 29834.457 238391.4219)">
						<stop  offset="0" style="stop-color:#B5D653"/>
						<stop  offset="0.995" style="stop-color:#019961"/>
					</linearGradient>
					<path class="st5" d="M176,382.6c-15.5,35.7-44.3,66.9-83.1,76.6c-31.9,8-77.1-2.2-85.5-39.1c-4-17.8,4.4-34.1,15.5-47.4
						c6-7.1,12.8-13.5,19.2-20.2c6-6.3,15-16.3,2.5-20.3c-17.3-5.5-35.1,17.3-48.8,24.8c-15.2,8.2-32.3,12.3-49.6,11.7
						c-35.4-1.1-69.1-20.4-84.5-52.9c-14.7-30.9-13.1-68.3,5.4-97.3c-2.9-4.6-2.2-10.6,1.7-14.4c33.5-34.4,70.7-70.7,120.5-77.6
						c47.8-6.6,95.3,20,135.2,43.3c34.1,19.9,64.1,47.5,70.5,88.2C201.5,298.4,192.2,345.4,176,382.6z"/>
					
						<linearGradient id="SVGID_6_" gradientUnits="userSpaceOnUse" x1="-86.2182" y1="706.8166" x2="-86.2182" y2="707.5656" gradientTransform="matrix(373.0974 0 0 -678.5364 32218.6641 480391.0313)">
						<stop  offset="0" style="stop-color:#000000"/>
						<stop  offset="0.199" style="stop-color:#151515"/>
						<stop  offset="0.428" style="stop-color:#252525"/>
						<stop  offset="0.681" style="stop-color:#2F2F2F"/>
						<stop  offset="1" style="stop-color:#333333"/>
					</linearGradient>
					<path class="st6" d="M65.6,512.1c-4.6,17.5-9.2,34.9-13.5,52.3c-14.7,59.8-26.6,119.7-27.9,179.4c-0.3,14.9,0,29.7,0.9,44.5
						c1.1,14.7,2.8,29.3,5.2,43.7c0.3,1.7,0.6,3.4,1,5.1h-50.7c-1.9-15.6-3-31.2-3.4-46.7c-0.3-16.3,0.1-32.6,1.1-48.7
						c1.1-16.1,2.9-32.2,5.2-48.1c2.4-15.9,5.2-31.6,8.5-47.2c2.8-12.9,5.8-25.7,9-38.4C-22.3,554.3-39.6,498.3-50.8,441
						c-20.3-16.6-40.9-34.1-57.1-56c-20.7-27.9-30.3-58.9-27.2-87.3l21.7,2.4c-2.5,22.9,5.6,48.4,23,71.9
						c9.7,13,21.4,24.6,33.7,35.5C-69.2,325-69,241-55.8,158.5l21.6,3C-49.1,291.7-31,423.5,18.4,544.8
						C35.3,488,54.1,432.4,68.8,376.1c15.4-59.4,26.3-119.9,25-180.8l21.8-1c1,15.9,1.2,31.8,0.8,47.7c-0.5,15.9-1.6,31.7-3.2,47.5
						c-1.7,15.8-3.9,31.4-6.4,47c-2.6,15.6-5.6,31-8.9,46.4c-5.4,25.2-11.6,50-18,74.7c61.4-55.9,108.4-125.8,136.9-203.9l20.7,7.1
						C206,358.4,145.8,446.7,65.6,512.1z"/>
					<path class="st7" d="M-89.1,443.6c0,2.4-4.1,4.3-9.2,4.3s-9.2-1.9-9.2-4.3s4.1-4.3,9.2-4.3S-89.1,441.2-89.1,443.6z"/>
					<path class="st7" d="M274.4,411.2c0,2.4-4.1,4.3-9.2,4.3s-9.2-1.9-9.2-4.3s4.1-4.3,9.2-4.3S274.4,408.8,274.4,411.2z"/>
					<path class="st7" d="M234,429.5c0,2.9-5,5.3-11.3,5.3s-11.3-2.4-11.3-5.3s5-5.3,11.3-5.3S234,426.5,234,429.5z"/>
					<ellipse class="st7" cx="262.2" cy="443.6" rx="18.8" ry="8.8"/>
					<ellipse class="st7" cx="-79.4" cy="470.6" rx="18.8" ry="8.8"/>
					
						<linearGradient id="SVGID_7_" gradientUnits="userSpaceOnUse" x1="-85.6232" y1="707.8376" x2="-85.4852" y2="708.7626" gradientTransform="matrix(629.6616 0 0 -360.3594 53965.0859 255281.2344)">
						<stop  offset="0" style="stop-color:#B5D653"/>
						<stop  offset="0.995" style="stop-color:#019961"/>
					</linearGradient>
					<path class="st8" d="M362.6,238.9c-5.8-58.7-45.5-113.7-108.8-113.4c-34.5,0.1-67.7,12.9-101.2-1.5
						C122,110.9,99.2,85.4,75.4,63.2C29.2,20.3-28.7-5.4-92.8,1c-63.6,6.3-122.5,43.8-154.9,99.1c-16.8,28.6-27.2,66.9-8,97
						c9,14.1,22.6,23.6,35.2,34.2c8,6.7,19,17.3,22.1,28.7c-11.5,21.3-9.2,48.3,5.7,67.7c17.8,23.2,48.6,31.9,76.7,26
						c28.3-5.9,50.2-25.8,65.9-49.1C-35.6,283-26,257.4-8.1,238c18.8-20.4,46.6-27.1,71.9-14.4c26.1,13.1,28.6,43.7,49.5,61.6
						c24.6,21.1,58.1,6.9,85.2,20.7c27.7,14.1,45.7,41.6,76.2,51.5c28,9,55.8-2.8,71.6-27C363,304.7,365.5,268.6,362.6,238.9z"/>
					<path class="st7" d="M-98,178.3c0,4.9-8.4,8.8-18.8,8.8s-18.8-4-18.8-8.8s8.4-8.8,18.8-8.8S-98,173.4-98,178.3z"/>
					<path class="st7" d="M-79.4,146.3c0,2.9-5,5.3-11.3,5.3s-11.3-2.4-11.3-5.3s5-5.3,11.3-5.3S-79.4,143.4-79.4,146.3z"/>
					<ellipse class="st7" cx="-144.8" cy="152.6" rx="9.2" ry="4.3"/>
					<path class="st7" d="M191.1,205.8c0,2.4-4.1,4.3-9.2,4.3s-9.2-1.9-9.2-4.3s4.1-4.3,9.2-4.3S191.1,203.5,191.1,205.8z"/>
					<path class="st7" d="M217.5,180.2c0,2.9-5,5.3-11.3,5.3s-11.3-2.4-11.3-5.3s5-5.3,11.3-5.3S217.5,177.3,217.5,180.2z"/>
					<path class="st7" d="M216.8,237.3c0,4.9-8.4,8.8-18.8,8.8s-18.8-4-18.8-8.8s8.4-8.8,18.8-8.8S216.8,232.4,216.8,237.3z"/>
				</g>
				<g transform="translate(209.606 538.429)">
					<path class="st9" d="M-70.6,0c0,0-140.1,246.9-195.4,276.4l72,3.8l142-122.7L-70.6,0z"/>
					
						<linearGradient id="SVGID_8_" gradientUnits="userSpaceOnUse" x1="-296.8073" y1="172.8536" x2="-296.8064" y2="173.5186" gradientTransform="matrix(222.46 0 0 -97.1001 66215.2578 17148.5527)">
						<stop  offset="0" style="stop-color:#B15945"/>
						<stop  offset="1" style="stop-color:#9C3E3F"/>
					</linearGradient>
					<path class="st10" d="M76.5,273.3v97.1h192.2c0,0,23.5-77.3,30.3-83.3L76.5,273.3z"/>
					
						<linearGradient id="SVGID_9_" gradientUnits="userSpaceOnUse" x1="-295.8972" y1="169.0013" x2="-295.8972" y2="169.5653" gradientTransform="matrix(355.212 0 0 -370.3601 105054.2109 62939.1211)">
						<stop  offset="0" style="stop-color:#B15945"/>
						<stop  offset="1" style="stop-color:#9C3E3F"/>
					</linearGradient>
					<path class="st11" d="M-70.6,0c0,0-75.7,196.9-159,266.6v103.8H76.6l49-149.2L-70.6,0z"/>
					<path class="st12" d="M-70.6,0l253,65.1c0,0,119.7,216.6,186.3,243.9H121.8C121.8,309-32.7,215.1-70.6,0z"/>
					<path class="st13" d="M-70.6,0l-53.8,317.9l-2.5,52.4h96.1l-8.4-83.2l-15-147.1L-70.6,0z"/>
					
						<linearGradient id="SVGID_10_" gradientUnits="userSpaceOnUse" x1="-298.5423" y1="169.1824" x2="-298.5423" y2="169.4274" gradientTransform="matrix(129.793 0 0 -370.353 38613.207 62937.9297)">
						<stop  offset="0" style="stop-color:#C0755E"/>
						<stop  offset="1" style="stop-color:#B15945"/>
					</linearGradient>
					<path class="st14" d="M-70.6,0c0,0-2.1,178.9-21.8,273.3c-11.4,54.9-34.5,97.1-34.5,97.1s-29.8-60.3-73.6-56.1
						C-200.4,314.2-126.8,241-70.6,0z"/>
					
						<linearGradient id="SVGID_11_" gradientUnits="userSpaceOnUse" x1="-299.5145" y1="169.3184" x2="-299.5145" y2="169.6033" gradientTransform="matrix(105.246 0 0 -370.356 31504.7441 62938.4219)">
						<stop  offset="0" style="stop-color:#C0755E"/>
						<stop  offset="1" style="stop-color:#B15945"/>
					</linearGradient>
					<path class="st15" d="M-70.6,0c0,0,14.1,291.6,39.9,370.4c0,0,34.8-39.4,65.3-48.6C34.7,321.8-27.5,242.6-70.6,0z"/>
				</g>
				<linearGradient id="SVGID_12_" gradientUnits="userSpaceOnUse" x1="492.1457" y1="824.7882" x2="492.1457" y2="648.4144">
					<stop  offset="0" style="stop-color:#B5D653"/>
					<stop  offset="0.995" style="stop-color:#019961"/>
				</linearGradient>
				<path class="st16" d="M600.7,908.5V721.2c-4.8-15.4-12.5-29.4-27.2-33.6c-22.7-6.4-42.9,15.8-53.7,36.7
					c-10.8,21-21.7,46-44.5,51.9c-15.2,3.9-31.5-2.2-46.9,0.4c-18.9,3.2-33.5,19.5-39.8,37.5S383,852,385,871l-1.5,37.5H600.7z"/>
			</g>
			<g transform="translate(462.777 962.139)">
				<path class="st2" d="M26.2,97.8c-8.4-8.9-24-11.6-32.7-3.1c2.5-18.7,2.4-41.2-12.9-52c-9.6-6.8-23.2-6.6-33.4-0.8
					s-17,16.6-19.6,28.1c0.8-13.4-9.4-25-22.8-25.9c-6-0.4-12,1.5-16.8,5.3c1.8-10.6,1.7-21.9-2.8-31.6S-128.9,0.2-139.7,0
					c-11.3-0.2-21.4,8-26.8,17.9s-7,21.4-8.6,32.6c-8.2-16-33-17.7-46.4-5.7s-16.2,32.6-11.3,49.9c-3.1-10.1-19-10.1-26-2.1
					c-7,8-7.4,19.5-7.3,30.1c0,3,0.1,6.2,1.7,8.8c2.9,4.6,9.4,5.1,14.9,5l173.6-1.2c28.9-0.2,57.9,0,86.8-0.6
					C35.6,134.2,46.6,119.3,26.2,97.8z"/>
			</g>
			
				<linearGradient id="SVGID_13_" gradientUnits="userSpaceOnUse" x1="273.2823" y1="710.126" x2="273.3603" y2="711.0701" gradientTransform="matrix(246.0408 0 0 -125.196 -66552.3438 90109.6094)">
				<stop  offset="0" style="stop-color:#B5D653"/>
				<stop  offset="0.995" style="stop-color:#019961"/>
			</linearGradient>
			<path class="st17" d="M636.8,1091.3c0,0,117-19,164.9,51.9c41.7,61.7-16.7,92.8-66.9,53.6c-50.2-39.2-92.2-40.4-130.3-25.9
				C566.4,1185.2,539.3,1113.8,636.8,1091.3z"/>
			
				<linearGradient id="SVGID_14_" gradientUnits="userSpaceOnUse" x1="269.8736" y1="710.0729" x2="270.0816" y2="711.085" gradientTransform="matrix(97.6475 0 0 -124.1567 -26231.8477 89339.6641)">
				<stop  offset="0" style="stop-color:#B5D653"/>
				<stop  offset="0.995" style="stop-color:#019961"/>
			</linearGradient>
			<path class="st18" d="M111.6,1053.8c0,0-0.6,33.4,38,63.4s38.6,54.8,0,60.5S40.1,1071.7,111.6,1053.8z"/>
			<path class="st2" d="M267.3,810.5c0,0,16-10.2,24.6-19.2c14.8,14.3,28.4,29.7,40.7,46.2l-18.4,15.5c0,0,15.7,3,28.2-1.8
				c3,4.5,5.7,9.4,7.9,14.4c5,11.8,9.5,27.1,4.8,36.2c-2.7,5.1-8.2,8.3-18.2,7.8c-11.8-0.7-23.6-2.5-35-5.6
				c-0.7-7.5-1.8-15-3.4-22.4c-1.7,6.7-4.2,13.2-7.3,19.3c-6-1.9-11.8-4.1-17.6-6.5c-14.4-6.1-28.2-13.3-41.4-21.5
				c5.7-9.1,10.7-18.6,14.9-28.6c-4.5,4.9-16.4,12.9-27.9,20.1c-6.3-4.2-12.4-8.6-18.5-13.1c-11.8-8.7-23.1-18-33.8-28
				c8.1-14.3,15.6-31.2,15.6-31.2c-5,6.7-16,15.4-25,21.9c-3.3-3.5-6.6-7.1-9.7-10.8c-5-6-9.7-12.3-14.1-18.9
				c9.4-8.1,16.5-20.3,16.5-20.3c-4.3,2.3-15,5.7-24.1,8.3c-11.1-18.5-20.5-38.2-29.7-57.7l0-0.1c21.2,0.8,42.5,1.6,63.3,5.2
				c1.5,9.5,2.8,20.7,1.5,24.4c4.6-6.9,8.6-14.1,12.2-21.5c15.4,3.8,30.4,9.2,44.7,16.2c1.9,10.6,3.5,23.5,1.4,29.4
				c0,0,8.9-12.5,13.1-21.8c17,9.8,33,21.2,47.7,34.2C276.8,790.7,271.7,805.2,267.3,810.5z"/>
			<path class="st2" d="M368.7,827.7c0,0,11.4,5.6,19.6,7.5c-3.1,13.4-7.2,26.6-12.3,39.4l-15.3-5.2c0,0,3.7,10,10.8,15.6
				c-1.5,3.3-3.4,6.5-5.5,9.5c-5.1,7-12.3,14.9-19.1,15.3c-3.8,0.3-7.6-1.8-10.8-7.7c-3.7-7-6.7-14.4-9-22.1c4.1-3,8-6.3,11.7-9.8
				c-4.4,1.3-9,2.2-13.6,2.5c-1-4.1-1.8-8.2-2.4-12.3c-1.5-10.4-2.2-20.8-2.1-31.3c7.2,0.1,14.4-0.3,21.6-1.4
				c-4.4-0.9-13.1-4.9-21.3-9c0.3-5.1,0.6-10.1,1.1-15.2c0.9-9.8,2.3-19.5,4.3-29.1c11-0.4,23.3-1.9,23.3-1.9
				c-5.6-0.5-14.4-3.8-21.3-6.7c0.8-3.1,1.8-6.2,2.8-9.3c1.7-5,3.7-9.9,5.9-14.7c7.9,2.6,17.4,2.4,17.4,2.4
				c-2.8-1.6-8.5-6.7-13.1-11c6.7-12.8,14.8-25,22.8-37.1l0,0c6.9,12.4,13.9,24.9,19.1,38.2c-4.9,4.2-10.9,8.8-13.5,9.3
				c5.5,0.2,11.1,0,16.6-0.5c3.2,10.2,5.3,20.6,6.3,31.3c-5.4,4.8-12.3,10.2-16.4,11c0,0,10.3,0.7,17.1-0.1
				c0.3,13.2-0.7,26.3-3,39.3C383.3,826.2,373.2,828.4,368.7,827.7z"/>
			
				<linearGradient id="SVGID_15_" gradientUnits="userSpaceOnUse" x1="268.9367" y1="710.6125" x2="269.5097" y2="712.8235" gradientTransform="matrix(86.5334 0 0 -95.4087 -23155.1777 68402.7969)">
				<stop  offset="0" style="stop-color:#B5D653"/>
				<stop  offset="0.995" style="stop-color:#019961"/>
			</linearGradient>
			<path class="st19" d="M130,443.3c0,0,48.4,13.3,56.5,54.8S160,548.8,130,522.3S83.9,431.2,130,443.3z"/>
			<g transform="translate(370.688 552.841)">
				
					<linearGradient id="SVGID_16_" gradientUnits="userSpaceOnUse" x1="-98.952" y1="155.2234" x2="-98.952" y2="154.6714" gradientTransform="matrix(143.4308 0 0 -297.197 13998.4834 46322.7188)">
					<stop  offset="0" style="stop-color:#B5D653"/>
					<stop  offset="0.995" style="stop-color:#019961"/>
				</linearGradient>
				<path class="st20" d="M-227.7,288.2c27.3,20.7,71.5,1.8,96-19.4c4.3-3.6,7.4-8.6,8.6-14.1c5.6-26.6-36.4-33.1-37.6-56.9
					c-0.5-10.4,7.3-19.1,13.1-27.8c13.2-19.8,17-44.9,14.2-68.6s-11.7-46.2-22-67.7C-163.9,16.2-179-3.7-198,0.6
					c-12.2,2.7-20.1,14.9-23.6,26.9c-4.9,16.5-4.2,34.3-0.9,51.2c1.5,7.5,3.4,15.3,1.4,22.6c-5.2,18.8-31.6,23.1-41.2,40.1
					c-9.8,17.3,1.9,38.4,12.7,55.1c9.2,14.3,14.9,23.2,8.8,35.4c-1.6,3.2-3.9,6.1-6.7,8.4C-253.3,245.3-264.2,260.5-227.7,288.2z"/>
				
					<linearGradient id="SVGID_17_" gradientUnits="userSpaceOnUse" x1="-117.723" y1="155.1869" x2="-118.723" y2="155.1869" gradientTransform="matrix(23.478 0 0 -331.9211 2578.0947 51725.2148)">
					<stop  offset="0" style="stop-color:#000000"/>
					<stop  offset="0.199" style="stop-color:#151515"/>
					<stop  offset="0.428" style="stop-color:#252525"/>
					<stop  offset="0.681" style="stop-color:#2F2F2F"/>
					<stop  offset="1" style="stop-color:#333333"/>
				</linearGradient>
				<path class="st21" d="M-191.8,49.4c0,5.9,6,329.9,6,329.9l-23.5,2.1L-191.8,49.4z"/>
			</g>
			
				<linearGradient id="SVGID_18_" gradientUnits="userSpaceOnUse" x1="273.8682" y1="712.1003" x2="272.8682" y2="712.1003" gradientTransform="matrix(252.841 0 0 -90.5381 -68299.7266 64960.7422)">
				<stop  offset="0" style="stop-color:#D8EFD1"/>
				<stop  offset="0.483" style="stop-color:#E5F3DD"/>
				<stop  offset="1" style="stop-color:#EFF7E7"/>
			</linearGradient>
			<path class="st22" d="M692.5,533.8c0-0.1,0-0.2,0-0.4c0-17.1,13.9-31,31-31c7.1,0,13.9,2.4,19.4,6.8c8-16.3,25.4-25.7,43.4-23.5
				c6.9-15,24.5-21.6,39.6-14.9c12.3-24.6,42.3-34.6,66.9-22.3c20,10,30.9,32.1,26.7,54.1c15,2.8,25.8,15.9,25.8,31.2L692.5,533.8z"
				/>
			<circle class="st2" cx="841.1" cy="370.4" r="36.6"/>
			<circle class="st2" cx="801.1" cy="219.6" r="17.9"/>
			<circle class="st2" cx="532.7" cy="68.3" r="33.7"/>
			<circle class="st2" cx="305.6" cy="617.7" r="15.3"/>
			<circle class="st2" cx="622.1" cy="70" r="14.7"/>
		</g>
	</g>
</g>
<linearGradient id="SVGID_19_" gradientUnits="userSpaceOnUse" x1="936.0958" y1="982.9214" x2="936.0958" y2="1137.4333">
	<stop  offset="0" style="stop-color:#B5D653"/>
	<stop  offset="0.995" style="stop-color:#019961"/>
</linearGradient>
<path class="st23" d="M961,997.2c-3.9,1.2-7.6,3.2-10.4,5.9c-9.2,8.7,0.5,19-2.4,28.8c-4.2,14.1-22.5,5.9-30.9,14
	c-21.2,20.3,18.7,32.4,32.9,34.5c3.5,0.5,7.2,1,10.8,1.5V997.2z"/>
<linearGradient id="SVGID_20_" gradientUnits="userSpaceOnUse" x1="1244.1875" y1="1292.6705" x2="995.7059" y2="1078.1578">
	<stop  offset="0" style="stop-color:#B5D653"/>
	<stop  offset="0.995" style="stop-color:#019961"/>
</linearGradient>
<path class="st24" d="M961,860.4c-5-14-16.3-26.4-30.9-28.9c-12.1-2.1-24.8,2.7-36.7-0.4c-17.8-4.6-26.4-24.2-34.8-40.6
	s-24.2-33.7-42-28.7c-16.2,4.6-21.6,24.4-24.9,41s-10.9,36.3-27.6,38.2c-10.5,1.2-19.9-5.5-29.4-10.2s-22.3-7-29.3,0.9
	c-4.7,5.4-4.7,13.3-7.6,19.9c-5.6,12.5-20.8,17.6-34.4,18.5s-27.9-0.8-40.7,4.1c-22.6,8.6-33.4,39.3-21,60.2H961V860.4z"/>
</svg>
