<svg xmlns="http://www.w3.org/2000/svg" width="105.504" height="105.34" viewBox="0 0 105.504 105.34"><g transform="translate(-140 -36.993)"><path d="M852.037,472.851a31.008,31.008,0,0,1,13.217,5.643h27.9a52.847,52.847,0,0,0-34.7-26.356C851.618,458.368,851.571,468.1,852.037,472.851Z" transform="translate(-654 -414)" fill="#019961"/><path d="M800.346,478.494h27.9a31.008,31.008,0,0,1,13.217-5.643c.466-4.752.419-14.483-6.422-20.712A52.848,52.848,0,0,0,800.346,478.494Z" transform="translate(-654 -414)" fill="#019961"/><path d="M877.927,503.577c0,.428-.016.853-.032,1.277h21.577c.01-.426.032-.849.032-1.277a52.469,52.469,0,0,0-6.348-25.078h-27.9A31.109,31.109,0,0,1,877.927,503.577Z" transform="translate(-654 -414)" fill="#3dad5c"/><path d="M815.574,503.577A31.106,31.106,0,0,1,828.247,478.5h-27.9A52.456,52.456,0,0,0,794,503.577c0,.428.022.851.032,1.277H815.61C815.589,504.425,815.574,504,815.574,503.577Z" transform="translate(-654 -414)" fill="#3dad5c"/><path d="M837.381,504.849H794.029a52.469,52.469,0,0,0,7.783,26.355h53.249C845.471,526.182,837.844,516.316,837.381,504.849Z" transform="translate(-654 -414)" fill="#79c258"/><path d="M866.66,504.849c-.462,11.467-13.125,21.333-22.719,26.355h47.748a52.479,52.479,0,0,0,7.783-26.355Z" transform="translate(-654 -414)" fill="#79c258"/><path d="M863.135,531.2H801.813a52.755,52.755,0,0,0,89.877,0h-30.5" transform="translate(-654 -414)" fill="#b5d653"/><rect width="79.636" height="26.355" transform="translate(150.259 90.849)" fill="#79c258"/><rect width="79.636" height="26.355" transform="translate(154.718 64.494)" fill="#3dad5c"/><path d="M858.454,452.138s-13.912-2.93-25.723.584c-9.093,2.705-13.227,9.632-12.227,13.632s.484,12.2.484,12.2h52.849" transform="translate(-654 -414)" fill="#019961"/><path d="M822.488,525.184l0,.006.013.018c.017.037.035.074.052.112,1.658-7.546,8.584-29.473,33.943-36.8l.182-.058c-.063.018-.12.04-.182.058-2.141.688-24.589,8.708-25.255,41.791,24.25,6.1,28.66-20.456,33.851-36.786a60.767,60.767,0,0,1,5.39-12.6S808.2,480,822.488,525.184Z" transform="translate(-654 -414)" fill="#fff"/></g></svg>