<svg width="35" height="35" viewBox="0 0 35 35" fill="none" xmlns="http://www.w3.org/2000/svg">
<path d="M5.01324 22.2706C4.80704 22.6915 4.88735 23.2002 5.21221 23.5329L5.47315 23.7999C6.22707 22.8857 7.10576 21.8936 8.17148 20.8034C8.24678 20.7263 8.32432 20.6891 8.3999 20.618L6.72116 18.8999C5.7452 20.7061 5.17608 21.9402 5.01324 22.2706Z" fill="white"/>
<path d="M13.7252 26.8223C12.8027 27.8615 11.9675 28.718 11.2002 29.452L11.5055 29.7959C11.7887 30.1149 12.2221 30.1916 12.5785 29.9851C13.0559 29.708 13.8066 29.31 15.4002 28.3103L13.882 26.6001C13.822 26.6739 13.7905 26.7491 13.7252 26.8223Z" fill="white"/>
<path d="M12.9987 21.3216C12.2995 20.5697 10.3331 21.2438 9.40942 22.2368C6.31932 25.5595 4.92369 27.9153 4.29706 29.3063C4.1174 29.7048 4.19224 30.1819 4.48351 30.4952C4.77528 30.8092 5.21975 30.8888 5.59064 30.6956C6.85525 30.0354 9.01938 28.5417 12.1463 25.1797C13.1619 24.087 13.6631 22.0363 12.9994 21.3224L12.9987 21.3216Z" fill="white"/>
<path d="M3.3329 13.6191L0.312773 16.4757C-0.0286979 16.7987 -0.0987717 17.2987 0.14315 17.6948C0.379232 18.0857 0.873643 18.2848 1.34414 18.1656C2.97642 17.7516 4.41265 17.5767 5.37978 17.8113C6.75568 15.4975 8.23418 13.3676 9.8 11.4328C8.89432 10.8836 5.90144 11.1895 3.3329 13.6191Z" fill="white"/>
<path d="M17.3092 34.8918C17.6656 35.088 18.0973 35.0122 18.3796 34.7047L20.9977 31.8557C23.0245 29.6493 23.3812 26.8026 22.9213 25.8999C20.9439 27.5218 18.9407 28.8914 17.0717 30.038C17.2007 30.8305 17.1149 31.5994 16.81 33.8448C16.7504 34.2795 16.9568 34.7 17.3092 34.8918Z" fill="white"/>
<path d="M20.4192 10.0217C19.3271 11.2506 19.3271 13.2496 20.4192 14.4784C21.5115 15.7073 23.2885 15.7073 24.3809 14.4784C25.4732 13.2496 25.4732 11.2506 24.3809 10.0217C23.2885 8.79288 21.5115 8.79288 20.4192 10.0217Z" fill="white"/>
<path d="M34.9403 0.990584C34.9039 0.488372 34.5045 0.0914157 34.0045 0.0538622C31.5135 -0.133905 29.0322 0.17287 26.6001 0.917593C26.7831 2.59058 27.6474 4.40108 29.1228 5.87836C30.616 7.3731 32.4733 8.23815 34.1741 8.4C34.8291 6.10157 35.1397 3.63996 34.9403 0.990584Z" fill="white"/>
<path d="M27.6637 7.20952C25.9426 5.48413 24.8916 3.41475 24.5544 1.3999C18.3437 3.95342 12.3983 9.52975 7.7002 17.3634L10.0343 19.7033C11.6291 19.0542 13.5651 18.8828 14.793 20.1135C16.0225 21.3464 15.8483 23.2864 15.201 24.883L17.6119 27.2999C23.6241 23.6674 30.6237 17.9445 33.6002 10.3303C31.5414 10.0185 29.4128 8.96299 27.6637 7.20952ZM26.2006 16.0074C24.1846 18.0284 20.9038 18.0284 18.8875 16.0074C16.8712 13.9861 16.8712 10.6967 18.8875 8.6757C20.9038 6.65464 24.1846 6.65464 26.2006 8.6757C28.2169 10.697 28.2169 13.9861 26.2006 16.0074Z" fill="white"/>
</svg>
