<?xml version="1.0" encoding="utf-8"?>
<!-- Generator: Adobe Illustrator 22.0.0, SVG Export Plug-In . SVG Version: 6.00 Build 0)  -->
<svg version="1.1" id="logo" xmlns="http://www.w3.org/2000/svg" xmlns:xlink="http://www.w3.org/1999/xlink" x="0px" y="0px"
	 viewBox="0 0 414.6 282.9" style="enable-background:new 0 0 414.6 282.9;" xml:space="preserve">
<style type="text/css">
	.st0{fill:#FFFFFF;}
	.st1{fill:#003589;}
</style>
<path id="item7" class="st0" d="M168.8,276c-9.9-19.7-13.6-46.9-22.9-69.4c-1.9-4.6-7.4-17.2-12.7-17.7c-4.7-0.4-11,8.1-12.7,11.1
	c-10.4,18.9-14.6,48.4-19.3,74c-2.6-37.7,6.1-86.6,27.8-101.5c14.3-9.9,26,29.3,29.6,41.9C164.1,234.2,168.1,253,168.8,276z"/>
<path id="item6" class="st0" d="M372.1,281c-16.5-14.7-22.5-35-38-51.8c-3.2-3.4-12.3-12.8-21-13.2c-7.8-0.3-18.2,6-21,8.3
	c-17.2,14.1-24.1,36.1-32,55.2c-4.3-28.1,10.1-64.6,46-75.8c23.7-7.4,43.1,21.9,49,31.3C364.4,249.8,370.9,263.8,372.1,281z"/>
<path id="item5" class="st0" d="M266.1,32.4c29.2,18.6,69.8-32.4,107-32c20.2,0.2,32.3,21,17,38C360.6-10.8,300.1,71.4,266.1,32.4z"
	/>
<path id="item4" class="st0" d="M381.4,237c-2.4-19.8,8.9-37.8,11.2-60c3.7-36.8-12.2-72.4-15.4-101c-0.8-6.9,1.5-14.7,2.8-15
	c41-8.9,35.8,60.1,32.1,88C407.2,186,395.5,215.4,381.4,237z"/>
<path id="item3" class="st0" d="M54.1,276.7c-18.8-11.9-32.8-28.3-35-54.1c-3.1-35.3,20.8-69.1,16-107.2C31,83.3-2.4,67.3,0.1,33.3
	c3.7-50.9,86.1-33.2,109-14c-27.8-8-70.9-8.8-81,14c-13.4,30.2,29.3,50.4,32,77.4C55.4,160.5,15.1,230.6,54.1,276.7z"/>
<path id="item2" class="st0" d="M102.1,40.7c32.8,18.6,78.3-32.4,120.1-32c22.6,0.2,36.3,21,19.1,38
	C208.1-2.5,140.3,79.7,102.1,40.7z"/>
<path id="item1" class="st0" d="M215.3,258c-2.2-22.2,8-42.3,10.1-67.2c3.4-41.2-11-81.1-13.9-113.2c-0.7-7.7,1.4-16.5,2.5-16.8
	c37-10,32.3,67.3,29,98.6C238.6,200.8,228,233.8,215.3,258z"/>
<g id="M">
	<path id="M_1_" class="st1" d="M198.9,279.8c0,0.5-0.2,0.9-0.5,1.3s-0.9,0.7-1.7,1c-0.8,0.2-1.9,0.4-3.3,0.6
		c-1.4,0.1-3.1,0.2-5.2,0.2c-2,0-3.7-0.1-5.1-0.2c-1.4-0.1-2.4-0.3-3.2-0.6c-0.8-0.2-1.4-0.6-1.7-1s-0.5-0.8-0.5-1.3V74.1h-0.2
		L145.9,152c-0.2,0.6-0.6,1.2-1.1,1.6c-0.5,0.4-1.2,0.8-2.1,1c-0.9,0.2-2,0.4-3.3,0.5c-1.4,0.1-3,0.1-4.9,0.1s-3.6-0.1-4.9-0.2
		c-1.4-0.1-2.5-0.3-3.3-0.6c-0.9-0.3-1.6-0.6-2.1-1s-0.8-0.9-1-1.4L92.5,74.1h-0.2v200.2c0,0.5-0.2,0.9-0.5,1.3s-0.9,0.7-1.7,1
		c-0.8,0.2-1.9,0.4-3.3,0.6c-1.3,0.1-3,0.2-5.1,0.2c-2,0-3.7-0.1-5.1-0.2s-2.4-0.3-3.3-0.6c-0.8-0.2-1.4-0.6-1.7-1
		c-0.3-0.4-0.5-0.8-0.5-1.3V66.7c0-2.5,0.8-4.4,2.3-5.8c1.5-1.3,3.6-2,6.1-2h14.6c2.6,0,4.8,0.2,6.7,0.6c1.9,0.4,3.5,1,4.8,1.9
		c1.4,0.9,2.5,2,3.4,3.4c0.9,1.4,1.7,3.1,2.4,5.2l23.7,57.1h0.3l24.5-56.9c0.7-2.1,1.5-3.8,2.4-5.3c0.9-1.4,1.9-2.6,3-3.5
		c1.2-0.9,2.5-1.5,4.1-1.9s3.4-0.6,5.5-0.6h15c1.5,0,2.8,0.2,3.9,0.5c1.1,0.3,2,0.9,2.7,1.5c0.7,0.7,1.2,1.5,1.6,2.4
		c0.4,1,0.5,2.1,0.5,3.3v213.2H198.9z"/>
</g>
<g id="D">
	<path id="D_1_" class="st1" d="M362.2,121.5c0,11.8-1.3,21.9-4,30.3c-2.7,8.4-6.5,15.3-11.4,20.6c-5,5.3-11,9.2-18.1,11.7
		s-15.6,3.7-25.4,3.7h-26.4c-1.9,0-3.5-0.6-4.7-1.9c-1.3-1.3-1.9-3.4-1.9-6.3V67.2c0-2.9,0.6-5,1.9-6.3s2.9-1.9,4.7-1.9h28.4
		c9.9,0,18.2,1.3,25.1,4s12.7,6.7,17.4,12c4.7,5.3,8.3,11.8,10.7,19.6C360.9,102.3,362.2,111.3,362.2,121.5z M338.9,122.4
		c0-6.1-0.6-11.8-1.8-17c-1.2-5.2-3.2-9.8-5.9-13.7c-2.7-3.9-6.2-6.9-10.4-9c-4.2-2.2-9.8-3.2-16.7-3.2h-11.4v87.7h11.7
		c6.2,0,11.4-0.9,15.6-2.8c4.2-1.9,7.7-4.7,10.6-8.4c2.8-3.8,4.9-8.4,6.3-14C338.2,136.3,338.9,129.8,338.9,122.4z"/>
</g>
</svg>
