<svg width="94" height="104" viewBox="0 0 94 104" fill="none" xmlns="http://www.w3.org/2000/svg">
<path d="M26.2507 43.0463H14.9422C13.9065 43.0463 13.0681 43.8846 13.0681 44.9204V56.2214C13.0681 57.2571 13.9065 58.0955 14.9422 58.0955H26.2507C27.2865 58.0955 28.1248 57.2571 28.1248 56.2214V44.9204C28.1248 43.8859 27.2852 43.0463 26.2507 43.0463ZM24.3766 54.3485H16.8164V46.7958H24.3766V54.3485Z" fill="#231F20"/>
<path d="M52.6272 43.0463H41.3149C40.2792 43.0463 39.4408 43.8846 39.4408 44.9204V56.2214C39.4408 57.2571 40.2792 58.0955 41.3149 58.0955H52.6272C53.6629 58.0955 54.5013 57.2571 54.5013 56.2214V44.9204C54.5013 43.8859 53.6629 43.0463 52.6272 43.0463ZM50.753 54.3485H43.1891V46.7958H50.753V54.3485Z" fill="#231F20"/>
<path d="M26.2507 68.7992H14.9422C13.9065 68.7992 13.0681 69.6388 13.0681 70.6733V81.9818C13.0681 83.0176 13.9065 83.8559 14.9422 83.8559H26.2507C27.2865 83.8559 28.1248 83.0176 28.1248 81.9818V70.6733C28.1248 69.6388 27.2852 68.7992 26.2507 68.7992ZM24.3766 80.1077H16.8164V72.5475H24.3766V80.1077Z" fill="#231F20"/>
<path d="M52.6272 68.7992H41.3149C40.2792 68.7992 39.4408 69.6388 39.4408 70.6733V81.9818C39.4408 83.0176 40.2792 83.8559 41.3149 83.8559H52.6272C53.6629 83.8559 54.5013 83.0176 54.5013 81.9818V70.6733C54.5013 69.6388 53.6629 68.7992 52.6272 68.7992ZM50.753 80.1077H43.1891V72.5475H50.753V80.1077Z" fill="#231F20"/>
<path d="M78.1815 68.7992H66.878C65.8423 68.7992 65.0039 69.6388 65.0039 70.6733V81.9818C65.0039 83.0176 65.8423 83.8559 66.878 83.8559H78.1815C79.2173 83.8559 80.0556 83.0176 80.0556 81.9818V70.6733C80.0556 69.6388 79.216 68.7992 78.1815 68.7992ZM76.3074 80.1077H68.7521V72.5475H76.3074V80.1077Z" fill="#231F20"/>
<path d="M91.9451 9.39566H80.5616V7.22293C80.5616 3.36223 77.4219 0.221191 73.5637 0.221191C69.703 0.221191 66.5619 3.36223 66.5619 7.22293V9.39566H53.9028V7.22293C53.9028 3.36223 50.763 0.221191 46.9048 0.221191C43.0416 0.221191 39.8994 3.36223 39.8994 7.22293V9.39566H27.244V7.22293C27.244 3.36223 24.1055 0.221191 20.246 0.221191C16.3828 0.221191 13.2405 3.36223 13.2405 7.22293V9.39566H1.88958C0.853816 9.39566 0.0154572 10.234 0.0154572 11.2698V101.328C0.0154572 102.362 0.853816 103.202 1.88958 103.202H91.9476C92.9834 103.202 93.8217 102.362 93.8217 101.328V11.2698C93.8192 10.234 92.9809 9.39566 91.9451 9.39566ZM70.3089 7.22293C70.3089 5.42751 71.7682 3.96944 73.5624 3.96944C75.3541 3.96944 76.8121 5.42876 76.8121 7.22293V16.8135C76.8121 18.6076 75.3541 20.0669 73.5624 20.0669C71.7682 20.0669 70.3089 18.6076 70.3089 16.8135V7.22293ZM46.9036 3.96819C48.6953 3.96819 50.1533 5.42751 50.1533 7.22168V16.8122C50.1533 18.6064 48.6953 20.0657 46.9036 20.0657C45.1069 20.0657 43.6464 18.6064 43.6464 16.8122V11.4747C43.6539 11.406 43.6676 11.3398 43.6676 11.2685C43.6676 11.1973 43.6539 11.1311 43.6464 11.0624V7.22168C43.6464 5.42751 45.1082 3.96819 46.9036 3.96819ZM16.9875 7.22293C16.9875 5.42751 18.4494 3.96944 20.2448 3.96944C22.0364 3.96944 23.4945 5.42876 23.4945 7.22293V16.8135C23.4945 18.6076 22.0364 20.0669 20.2448 20.0669C18.4481 20.0669 16.9875 18.6076 16.9875 16.8135V7.22293ZM90.071 99.4524H3.76121V13.1427H13.238V16.8122C13.238 20.6729 16.3816 23.8139 20.2435 23.8139C24.1017 23.8139 27.2415 20.6729 27.2415 16.8122V13.1427H39.8969V16.8122C39.8969 20.6729 43.0404 23.8139 46.9023 23.8139C50.7605 23.8139 53.9003 20.6729 53.9003 16.8122V13.1427H66.5594V16.8122C66.5594 20.6729 69.7005 23.8139 73.5612 23.8139C77.4194 23.8139 80.5592 20.6729 80.5592 16.8122V13.1427H90.0685V99.4524H90.071Z" fill="#231F20"/>
<path d="M80.2543 37.6288L70.6912 49.4158L66.7019 45.6076C65.9535 44.8929 64.7678 44.9204 64.0518 45.6688C63.3372 46.4185 63.3647 47.6041 64.1131 48.3188L69.5718 53.5301C69.9216 53.8637 70.3851 54.0486 70.8662 54.0486C70.9061 54.0486 70.9449 54.0474 70.9849 54.0449C71.5071 54.0124 71.9919 53.7613 72.3217 53.3552L83.1654 39.9914C83.8176 39.1881 83.6939 38.0074 82.8906 37.3552C82.0872 36.7017 80.9065 36.8254 80.2543 37.6288Z" fill="#231F20"/>
</svg>
