<svg width="114" height="110" viewBox="0 0 114 110" fill="none" xmlns="http://www.w3.org/2000/svg">
<path d="M113.201 51.0452C112.383 47.8592 110.374 45.1842 107.544 43.5112C104.711 41.837 101.396 41.3685 98.2101 42.1881C92.2541 43.7211 88.4496 49.386 89.0406 55.3269L76.5677 58.5392C76.6988 57.6059 76.7901 56.6601 76.7901 55.6905C76.7901 44.4195 67.6206 35.2501 56.3496 35.2501C55.5225 35.2501 54.7116 35.3138 53.9095 35.41L57.5265 24.6088C58.2237 24.73 58.9259 24.7949 59.6268 24.7949C61.5059 24.7949 63.3726 24.3601 65.103 23.498C68.0466 22.0325 70.2431 19.5061 71.2889 16.3864C73.4429 9.94811 69.9595 2.95512 63.5237 0.798623C57.088 -1.35537 50.0925 2.128 47.9348 8.5675C45.9819 14.3973 48.6669 20.6706 53.9757 23.4056L49.7414 36.0534C49.7039 36.1671 49.6789 36.2821 49.664 36.397C41.9788 39.0683 36.3814 46.1925 35.9616 54.6735L25.2428 51.0764C26.2586 45.1929 22.8714 39.2694 17.0429 37.3141C13.9219 36.2671 10.5847 36.4982 7.64105 37.9625C4.69493 39.4269 2.4972 41.9507 1.45269 45.068C-0.707554 51.5037 2.77082 58.4992 9.20657 60.6632C10.501 61.0967 11.8166 61.3029 13.1123 61.3029C17.6539 61.3029 21.9319 58.7653 24.0621 54.6348L36.1565 58.6929C37.6158 68.5433 46.1019 76.1335 56.3521 76.1335C57.173 76.1335 57.9788 76.071 58.7735 75.9773L54.2281 85.2118C51.743 84.4246 49.0855 84.4334 46.5754 85.288C43.4631 86.3462 40.948 88.5552 39.4949 91.5063C38.0406 94.4574 37.822 97.7971 38.8815 100.911C39.9397 104.025 42.1487 106.541 45.1023 107.994C46.819 108.839 48.6682 109.266 50.5273 109.266C51.8629 109.266 53.2048 109.046 54.5079 108.602C57.6215 107.541 60.1366 105.334 61.5871 102.385C63.0427 99.4314 63.2601 96.0904 62.2006 92.9781C61.3448 90.4668 59.7318 88.3565 57.5928 86.8672L63.4813 74.9028C63.495 74.8741 63.5013 74.8441 63.5137 74.8141C69.0849 72.7201 73.4941 68.2721 75.5381 62.6773L89.9752 58.959C90.9972 61.3566 92.7339 63.3669 95.0203 64.7176C96.9419 65.852 99.0847 66.433 101.259 66.433C102.288 66.433 103.325 66.3031 104.35 66.0394C107.538 65.2186 110.213 63.207 111.885 60.3758C113.554 57.5434 114.023 54.23 113.201 51.0452ZM51.4881 9.75944C52.9899 5.28153 57.8501 2.85391 62.333 4.35447C66.8097 5.85377 69.2311 10.719 67.733 15.1982C67.0071 17.3684 65.4791 19.1251 63.4325 20.1446C61.3847 21.1629 59.0646 21.3253 56.8943 20.5981C52.4139 19.0963 49.9901 14.2349 51.4881 9.75944ZM58.2225 100.728C57.2117 102.78 55.4638 104.317 53.2973 105.054C51.1345 105.791 48.8081 105.642 46.7578 104.631C44.7025 103.621 43.167 101.871 42.4298 99.705C41.6939 97.5397 41.8464 95.2158 42.8584 93.1618C43.8704 91.1077 45.6183 89.5722 47.7823 88.8363C48.6857 88.529 49.6152 88.3765 50.5423 88.3765C51.8379 88.3765 53.1261 88.6739 54.3218 89.2636C54.323 89.2636 54.323 89.2636 54.323 89.2636C56.3771 90.2744 57.9139 92.0223 58.6498 94.1863C59.3857 96.3491 59.2345 98.673 58.2225 100.728ZM10.3985 57.1099C5.92061 55.6056 3.50048 50.7378 5.00478 46.2599C5.73194 44.0922 7.26123 42.3367 9.30902 41.3185C10.5135 40.72 11.8104 40.4176 13.116 40.4176C14.0331 40.4176 14.9551 40.5663 15.8497 40.8662C20.3239 42.368 22.744 47.232 21.2435 51.7099C19.7392 56.189 14.8789 58.6129 10.3985 57.1099ZM56.3508 72.3852C47.1464 72.3852 39.6586 64.8962 39.6586 55.6905C39.6586 46.4861 47.1464 38.9983 56.3508 38.9983C65.5553 38.9983 73.0431 46.4861 73.0431 55.6905C73.0431 64.8962 65.5553 72.3852 56.3508 72.3852ZM108.655 58.4692C107.492 60.4383 105.63 61.8377 103.413 62.4086C101.2 62.9784 98.896 62.6535 96.9257 61.4903C94.9553 60.3271 93.5572 58.4655 92.9875 56.249C91.8105 51.6749 94.5743 46.9971 99.1471 45.8201C99.8605 45.6365 100.583 45.5453 101.301 45.5453C102.813 45.5453 104.303 45.9501 105.64 46.7397C107.608 47.9029 109.005 49.7633 109.572 51.9773C109.572 51.9773 109.574 51.9785 109.574 51.9797C110.142 54.195 109.817 56.5001 108.655 58.4692Z" fill="#231F20"/>
</svg>
