<svg width="126" height="126" viewBox="0 0 126 126" fill="none" xmlns="http://www.w3.org/2000/svg">
<path d="M115.191 38.3913V38.3863C115.191 38.3813 115.19 38.3775 115.19 38.3725C115.189 38.2376 115.17 38.1027 115.14 37.9702C115.13 37.9278 115.116 37.8878 115.104 37.8465C115.076 37.7553 115.041 37.6654 114.999 37.5767C114.976 37.5304 114.953 37.4842 114.926 37.4405C114.909 37.4105 114.896 37.3768 114.878 37.348C114.844 37.298 114.803 37.2568 114.765 37.2106C114.735 37.1731 114.708 37.1356 114.675 37.1006C114.579 36.9982 114.475 36.907 114.362 36.8308C114.36 36.8295 114.359 36.8283 114.358 36.827L114.357 36.8258C114.353 36.8233 114.349 36.8208 114.347 36.8183L68.9054 6.57612C68.2757 6.15757 67.4573 6.15757 66.8276 6.57612L50.8325 17.2399L50.8313 17.2411L36.1344 27.0378C35.9332 27.1265 35.7446 27.2477 35.5822 27.4064L10.7025 43.9937C10.5826 44.0724 10.4726 44.1698 10.3702 44.2773C10.3377 44.3123 10.3102 44.3498 10.2802 44.3872C10.2427 44.4335 10.2015 44.4734 10.1678 44.5247C10.1478 44.5534 10.1365 44.5859 10.119 44.6159C10.0928 44.6609 10.0678 44.7071 10.0453 44.7558C10.0041 44.842 9.97035 44.9307 9.94286 45.0207C9.92912 45.0644 9.91538 45.1057 9.90538 45.1494C9.87665 45.2768 9.85915 45.4055 9.8579 45.5355C9.8579 45.5454 9.85416 45.5542 9.85416 45.5629V45.5729V45.5742V87.7558C9.85416 88.383 10.1678 88.9689 10.69 89.3163L56.1401 119.567C56.1463 119.571 56.1526 119.572 56.1588 119.576C56.29 119.661 56.4337 119.725 56.5836 119.776C56.6211 119.788 56.6573 119.801 56.6948 119.811C56.8497 119.852 57.0097 119.881 57.1771 119.881C57.3445 119.881 57.5044 119.852 57.6594 119.81C57.6968 119.8 57.7343 119.787 57.7706 119.775C57.9242 119.723 58.0717 119.658 58.2041 119.571C58.2079 119.568 58.2116 119.567 58.2154 119.566L58.2228 119.561C58.2241 119.561 58.2241 119.56 58.2253 119.56L114.354 82.1396C114.875 81.7923 115.189 81.2076 115.189 80.5804V38.4C115.191 38.3975 115.191 38.3938 115.191 38.3913ZM67.8683 10.3868L109.936 38.3875L96.6312 47.2584L55.1893 18.8404L67.8683 10.3868ZM57.1783 73.5611L15.108 45.5604L36.904 31.0297L78.3472 59.4477L57.1783 73.5611ZM51.8283 21.0806L93.2703 49.4986L81.7069 57.2075L40.2637 28.7895L51.8283 21.0806ZM83.5273 60.4985L94.6534 53.0807L94.2573 70.74L83.5273 77.7792V60.4985ZM13.6024 49.0601L55.3042 76.8171V114.507L13.6024 86.7512V49.0601ZM59.0525 114.505V76.8159L79.779 62.9973V81.2501C79.779 81.9385 80.1576 82.5719 80.7623 82.8993C81.0422 83.0492 81.3483 83.1242 81.6532 83.1242C82.0117 83.1242 82.3703 83.0217 82.6814 82.8168L97.1372 73.3325C97.652 72.9939 97.9681 72.4242 97.9831 71.807L98.4591 50.5431L111.443 41.8872V79.5771L59.0525 114.505Z" fill="#231F20"/>
<path d="M51.8758 86.1277C52.4818 86.1277 53.0765 85.8354 53.4376 85.2919C54.0111 84.431 53.7774 83.2666 52.9166 82.6931L31.4441 68.401C30.582 67.8275 29.4175 68.0599 28.8453 68.9233C28.2718 69.7841 28.5054 70.9486 29.3663 71.522L50.84 85.8141C51.1586 86.0265 51.5197 86.1277 51.8758 86.1277Z" fill="#231F20"/>
<path d="M52.9166 92.4698L40.6198 84.2848C39.7577 83.7113 38.5932 83.945 38.021 84.8071C37.4475 85.6679 37.6812 86.8324 38.542 87.4059L50.8388 95.5908C51.1574 95.8032 51.5185 95.9044 51.8758 95.9044C52.4818 95.9044 53.0765 95.6121 53.4376 95.0686C54.0111 94.2065 53.7774 93.0433 52.9166 92.4698Z" fill="#231F20"/>
</svg>
