<svg width="126" height="126" viewBox="0 0 126 126" fill="none" xmlns="http://www.w3.org/2000/svg">
<path d="M77.2938 83.2023C77.0332 82.7839 76.6182 82.4851 76.1388 82.3705C75.6594 82.2559 75.1542 82.3348 74.7325 82.5901L62.4133 90.0866C60.4039 91.2507 58.0316 91.6206 55.7633 91.1235C53.4949 90.6263 51.4948 89.2981 50.1565 87.4003L33.3893 60.5753C32.8108 59.6549 32.4211 58.6285 32.2431 57.556C32.0651 56.4835 32.1022 55.3863 32.3523 54.3283C32.6021 53.2586 33.0621 52.2494 33.7056 51.3592C34.3491 50.4691 35.1632 49.7158 36.1005 49.1432L48.8946 41.3343C49.1051 41.2052 49.2881 41.0357 49.4329 40.8356C49.5777 40.6355 49.6815 40.4088 49.7384 40.1685C49.7953 39.9281 49.8041 39.6789 49.7644 39.4351C49.7246 39.1914 49.6371 38.9578 49.5068 38.748L38.8992 21.7559C38.6386 21.3376 38.2236 21.0387 37.7442 20.9242C37.2648 20.8096 36.7596 20.8885 36.3379 21.1437L23.5939 28.9276C21.1542 30.4235 19.0473 32.4038 17.4033 34.7463C15.7593 37.0887 14.6132 39.7434 14.0358 42.5463C11.3621 53.791 15.2853 69.0964 24.8308 84.3892C36.2005 102.606 51.2935 113.301 64.1749 113.301C68.0109 113.334 71.7801 112.296 75.0574 110.302L87.2892 102.806C87.4997 102.677 87.6826 102.507 87.8275 102.307C87.9723 102.107 88.0761 101.88 88.133 101.64C88.1899 101.399 88.1987 101.15 88.159 100.906C88.1192 100.663 88.0317 100.429 87.9014 100.219L77.2938 83.2023ZM73.1083 107.054C60.6141 114.663 41.673 104.292 28.0168 82.3902C19.1335 68.1593 15.2728 53.5786 17.6841 43.3959C18.1584 41.0848 19.1002 38.8952 20.4516 36.9614C21.8031 35.0277 23.5357 33.3907 25.543 32.1511L36.7877 25.3168L45.4087 39.1353L34.2264 45.9572C32.8668 46.7785 31.6835 47.8612 30.7448 49.1427C29.8062 50.4242 29.1309 51.879 28.758 53.4231C28.385 54.9671 28.3218 56.5698 28.5721 58.1384C28.8223 59.7071 29.381 61.2105 30.2158 62.5619L46.958 89.4119C48.8199 92.1524 51.6558 94.0808 54.8888 94.8049C58.1219 95.5291 61.5094 94.9945 64.3624 93.3101L75.1073 86.7506L83.7283 100.569L73.1083 107.054Z" fill="#231F20"/>
<path d="M63.088 42.7087C66.1072 42.859 69.0485 43.7191 71.673 45.2192C74.2976 46.7193 76.5315 48.817 78.1934 51.3421C79.7751 53.7287 80.789 56.446 81.1572 59.2854C81.5254 62.1249 81.2381 65.0109 80.3174 67.722C80.2354 67.955 80.2 68.2018 80.2134 68.4485C80.2268 68.6951 80.2886 68.9367 80.3953 69.1595C80.5021 69.3822 80.6516 69.5818 80.8355 69.7468C81.0194 69.9117 81.2339 70.0388 81.4669 70.1209C81.6999 70.2029 81.9467 70.2383 82.1934 70.2249C82.44 70.2115 82.6816 70.1497 82.9044 70.043C83.1272 69.9362 83.3267 69.7867 83.4917 69.6028C83.6566 69.4189 83.7837 69.2044 83.8658 68.9714C84.984 65.7232 85.3403 62.2614 84.907 58.8535C84.4737 55.4456 83.2625 52.1831 81.3669 49.3181C79.3692 46.3076 76.6975 43.8042 73.5636 42.0063C70.4297 40.2084 66.92 39.1655 63.3129 38.9604C62.8158 38.9322 62.3279 39.1027 61.9566 39.4342C61.5852 39.7658 61.3607 40.2313 61.3325 40.7283C61.3044 41.2254 61.4748 41.7133 61.8064 42.0846C62.1379 42.456 62.6034 42.6805 63.1005 42.7087H63.088Z" fill="#231F20"/>
<path d="M66.5363 23.9799C66.2902 23.9512 66.0409 23.9712 65.8025 24.0389C65.5641 24.1065 65.3414 24.2205 65.1471 24.3742C64.9528 24.5279 64.7906 24.7184 64.6699 24.9348C64.5492 25.1512 64.4723 25.3892 64.4436 25.6354C64.4148 25.8815 64.4349 26.1308 64.5025 26.3692C64.5702 26.6076 64.6841 26.8303 64.8379 27.0246C64.9916 27.2189 65.1821 27.3811 65.3985 27.5018C65.6149 27.6225 65.8529 27.6994 66.099 27.7281C70.9868 28.2838 75.6904 29.9168 79.871 32.5094C84.0516 35.102 87.605 38.5897 90.2753 42.7211C92.8962 46.7567 94.6235 51.3063 95.3411 56.0644C96.0587 60.8226 95.75 65.6792 94.4358 70.3083C94.351 70.5495 94.3164 70.8055 94.3342 71.0606C94.3521 71.3157 94.4219 71.5644 94.5394 71.7915C94.657 72.0186 94.8197 72.2192 95.0177 72.3811C95.2157 72.5429 95.4447 72.6625 95.6906 72.7325C95.9365 72.8025 96.1942 72.8215 96.4477 72.7882C96.7012 72.7549 96.9453 72.6701 97.1648 72.539C97.3843 72.4079 97.5747 72.2332 97.7242 72.0258C97.8737 71.8184 97.9792 71.5825 98.0341 71.3328C99.4936 66.1955 99.8384 60.8056 99.0455 55.5242C98.2525 50.2428 96.3401 45.1918 93.4363 40.7096C90.4702 36.1039 86.5187 32.2141 81.8668 29.321C77.215 26.4279 71.9788 24.6037 66.5363 23.9799Z" fill="#231F20"/>
<path d="M104.269 33.4879C100.265 27.3743 94.9969 22.1901 88.8199 18.2847C82.6429 14.3794 75.7004 11.8436 68.4604 10.8485C67.9634 10.7806 67.4597 10.9129 67.0602 11.2163C66.6607 11.5197 66.3981 11.9694 66.3302 12.4665C66.2622 12.9635 66.3945 13.4672 66.698 13.8667C67.0014 14.2662 67.4511 14.5288 67.9482 14.5967C74.6545 15.5134 81.0865 17.8567 86.8108 21.4689C92.5351 25.081 97.4188 29.8781 101.133 35.537C104.759 41.0732 107.172 47.3146 108.212 53.8505C109.252 60.3863 108.896 67.0684 107.167 73.4568C107.103 73.6947 107.086 73.9429 107.118 74.1873C107.15 74.4317 107.23 74.6674 107.353 74.8809C107.476 75.0945 107.64 75.2816 107.835 75.4317C108.031 75.5819 108.254 75.6919 108.492 75.7557C108.651 75.7975 108.815 75.8185 108.979 75.8182C109.392 75.8186 109.793 75.6829 110.12 75.4322C110.448 75.1814 110.683 74.8296 110.791 74.4313C112.655 67.533 113.037 60.3182 111.913 53.2614C110.789 46.2046 108.184 39.4657 104.269 33.4879Z" fill="#231F20"/>
</svg>
