<svg width="115" height="75" viewBox="0 0 115 75" fill="none" xmlns="http://www.w3.org/2000/svg">
<path d="M112.976 36.7575H103.282V20.3976C103.282 19.3619 102.442 18.5235 101.408 18.5235H71.0458V2.19737C71.0458 1.1616 70.2062 0.323242 69.1716 0.323242H2.07045C1.03468 0.323242 0.19632 1.1616 0.19632 2.19737V63.65C0.19632 64.6845 1.03468 65.5241 2.07045 65.5241H17.7356C18.3853 70.3556 22.5234 74.0963 27.5286 74.0963C32.5337 74.0963 36.6718 70.3556 37.3215 65.5241H69.1716H81.2735C81.9232 70.3556 86.0638 74.0963 91.0739 74.0963C96.0841 74.0963 100.225 70.3556 100.876 65.5241H112.977C114.012 65.5241 114.852 64.6845 114.852 63.65V38.6316C114.85 37.5959 114.011 36.7575 112.976 36.7575ZM27.5286 70.3481C24.1414 70.3481 21.3852 67.5906 21.3852 64.2009C21.3852 60.8113 24.1414 58.0538 27.5286 58.0538C30.9157 58.0538 33.672 60.8113 33.672 64.2009C33.672 67.5906 30.917 70.3481 27.5286 70.3481ZM27.5286 54.3056C22.912 54.3056 19.0363 57.4903 17.9505 61.7758H3.94457V4.07149H67.2975V20.3976V38.6316V61.7746H37.1078C36.0221 57.4903 32.1452 54.3056 27.5286 54.3056ZM91.0739 70.3481C87.6817 70.3481 84.923 67.5906 84.923 64.2009C84.923 60.8113 87.6817 58.0538 91.0739 58.0538C94.4661 58.0538 97.2261 60.8113 97.2261 64.2009C97.2261 67.5906 94.4648 70.3481 91.0739 70.3481ZM111.102 61.7746H100.661C99.5737 57.4891 95.6943 54.3043 91.0739 54.3043C86.4536 54.3043 82.5741 57.4891 81.4884 61.7746H71.047V38.6316V22.2718H99.535V38.6316C99.535 39.6661 100.375 40.5058 101.409 40.5058H111.103V61.7746H111.102Z" fill="#231F20"/>
</svg>
