<svg width="117" height="65" viewBox="0 0 117 65" fill="none" xmlns="http://www.w3.org/2000/svg">
<path d="M58.4424 34.87C43.2408 34.87 30.8728 47.2367 30.8728 62.4384C30.8728 63.4729 31.7112 64.3125 32.7469 64.3125H84.1367C85.1712 64.3125 86.0108 63.4729 86.0108 62.4384C86.0108 47.2367 73.6429 34.87 58.4424 34.87ZM34.6948 60.5643C35.6543 48.3025 45.9395 38.6182 58.4424 38.6182C70.9454 38.6182 81.2306 48.3025 82.1889 60.5643H34.6948Z" fill="#231F20"/>
<path d="M57.9927 32.3949C66.9172 32.3949 74.1776 25.1346 74.1776 16.21C74.1776 7.28539 66.916 0.0250244 57.9927 0.0250244C49.0681 0.0250244 41.8077 7.28539 41.8077 16.21C41.8077 25.1346 49.0681 32.3949 57.9927 32.3949ZM57.9927 3.77328C64.8495 3.77328 70.4294 9.35192 70.4294 16.21C70.4294 23.0668 64.8495 28.6467 57.9927 28.6467C51.1346 28.6467 45.556 23.068 45.556 16.21C45.556 9.35192 51.1346 3.77328 57.9927 3.77328Z" fill="#231F20"/>
<path d="M21.802 45.2115C24.8768 45.2115 27.8967 46.0311 30.5355 47.5829C31.4275 48.1102 32.577 47.809 33.1005 46.9182C33.6253 46.0261 33.3279 44.8767 32.4346 44.3519C29.2211 42.4615 25.544 41.4633 21.802 41.4633C10.2362 41.4633 0.826813 50.8726 0.826813 62.4385C0.826813 63.473 1.66517 64.3126 2.70094 64.3126H26.4549C27.4906 64.3126 28.329 63.473 28.329 62.4385C28.329 61.404 27.4906 60.5643 26.4549 60.5643H4.67627C5.61333 51.9434 12.9362 45.2115 21.802 45.2115Z" fill="#231F20"/>
<path d="M21.4697 38.4708C28.3677 38.4708 33.9813 32.8585 33.9813 25.9592C33.9813 19.0599 28.369 13.4475 21.4697 13.4475C14.5704 13.4475 8.95801 19.0599 8.95801 25.9592C8.95801 32.8572 14.5704 38.4708 21.4697 38.4708ZM21.4697 17.1958C26.3012 17.1958 30.2331 21.1264 30.2331 25.9592C30.2331 30.7907 26.3024 34.7226 21.4697 34.7226C16.6369 34.7226 12.7063 30.7919 12.7063 25.9592C12.7063 21.1264 16.6369 17.1958 21.4697 17.1958Z" fill="#231F20"/>
<path d="M95.234 41.4633C91.4933 41.4633 87.8162 42.4628 84.6015 44.3519C83.7082 44.8767 83.4108 46.0249 83.9355 46.917C84.4603 47.8115 85.6123 48.1077 86.5006 47.5829C89.1406 46.0311 92.1605 45.2115 95.234 45.2115C104.1 45.2115 111.423 51.9434 112.36 60.5643H90.5849C89.5504 60.5643 88.7108 61.404 88.7108 62.4385C88.7108 63.473 89.5504 64.3126 90.5849 64.3126H114.335C115.37 64.3126 116.209 63.473 116.209 62.4385C116.209 50.8726 106.8 41.4633 95.234 41.4633Z" fill="#231F20"/>
<path d="M95.5676 38.4708C102.466 38.4708 108.079 32.8585 108.079 25.9592C108.079 19.0599 102.467 13.4475 95.5676 13.4475C88.6683 13.4475 83.0547 19.0599 83.0547 25.9592C83.0559 32.8572 88.6683 38.4708 95.5676 38.4708ZM95.5676 17.1958C100.399 17.1958 104.331 21.1264 104.331 25.9592C104.331 30.7907 100.4 34.7226 95.5676 34.7226C90.7349 34.7226 86.8029 30.7919 86.8029 25.9592C86.8042 21.1264 90.7349 17.1958 95.5676 17.1958Z" fill="#231F20"/>
</svg>
