<svg width="126" height="126" viewBox="0 0 126 126" fill="none" xmlns="http://www.w3.org/2000/svg">
<path d="M52.3535 52.877C42.7442 52.877 34.9254 60.6958 34.9254 70.3051C34.9254 79.9143 42.743 87.7319 52.3535 87.7319C61.964 87.7319 69.7816 79.9143 69.7816 70.3051C69.7816 60.6958 61.9628 52.877 52.3535 52.877ZM52.3535 83.9849C44.8108 83.9849 38.6736 77.8491 38.6736 70.3063C38.6736 62.7636 44.8108 56.6265 52.3535 56.6265C59.8975 56.6265 66.0334 62.7636 66.0334 70.3063C66.0334 77.8491 59.8962 83.9849 52.3535 83.9849Z" fill="#231F20"/>
<path d="M15.6694 52.8782C14.6336 52.8782 13.7952 53.7165 13.7952 54.7523V85.8578C13.7952 86.8923 14.6336 87.7319 15.6694 87.7319C16.7051 87.7319 17.5435 86.8923 17.5435 85.8578V54.7523C17.5435 53.7165 16.7051 52.8782 15.6694 52.8782Z" fill="#231F20"/>
<path d="M88.4467 52.8782C87.4122 52.8782 86.5725 53.7165 86.5725 54.7523V85.8578C86.5725 86.8923 87.4122 87.7319 88.4467 87.7319C89.4812 87.7319 90.3208 86.8923 90.3208 85.8578V54.7523C90.3208 53.7165 89.4824 52.8782 88.4467 52.8782Z" fill="#231F20"/>
<path d="M119.231 20.0909H27.5013C26.4656 20.0909 25.6272 20.9293 25.6272 21.9651V31.2345H17.2311C16.1954 31.2345 15.357 32.0729 15.357 33.1086V43.4138H6.06759C5.03183 43.4138 4.19347 44.2522 4.19347 45.2879V95.3234C4.19347 96.3579 5.03183 97.1975 6.06759 97.1975H97.7986C98.8331 97.1975 99.6727 96.3579 99.6727 95.3234V85.0182H108.963C109.998 85.0182 110.837 84.1786 110.837 83.144V73.8746H119.232C120.267 73.8746 121.106 73.035 121.106 72.0005V21.9651C121.105 20.9293 120.266 20.0909 119.231 20.0909ZM7.94172 93.4492V47.1621H95.9244V83.1315C95.9244 83.1353 95.9232 83.139 95.9232 83.144C95.9232 83.149 95.9244 83.1515 95.9244 83.1565V93.4492H7.94172ZM107.088 81.2699H99.6714V45.2879C99.6714 44.2522 98.8318 43.4138 97.7973 43.4138H19.1053V34.9827H107.088V81.2699ZM117.357 70.1264H110.836V33.1086C110.836 32.0729 109.997 31.2345 108.962 31.2345H29.3755V23.8392H117.357V70.1264Z" fill="#231F20"/>
</svg>
